<svg xmlns="http://www.w3.org/2000/svg" viewBox="0 0 363.58 202.55"><defs><style>.cls-1{fill:#f39800;}.cls-2{fill:#fff;}.cls-3{fill:#e60012;stroke:#e60012;}.cls-3,.cls-4{stroke-miterlimit:10;}.cls-4{fill:none;stroke:#f39800;}</style></defs><g id="レイヤー_2" data-name="レイヤー 2"><g id="レイヤー_3" data-name="レイヤー 3"><rect class="cls-1" width="363.58" height="202.55" rx="5.42"/><rect class="cls-2" x="7.73" y="7.78" width="348.12" height="187" rx="5.42"/><path class="cls-1" d="M43.24,49.93a1.22,1.22,0,0,1-.92-1.51,58.55,58.55,0,0,0,1.21-7.53,1.23,1.23,0,0,1,.43-.83,1.2,1.2,0,0,1,.89-.3,1.33,1.33,0,0,1,.83.4A1.15,1.15,0,0,1,46,41c0,.34-.06.83-.13,1.48q0,.24.21.24h.38q.21,0,.21-.24V40.06a1.37,1.37,0,0,1,.42-1,1.34,1.34,0,0,1,1-.41,1.42,1.42,0,0,1,1.43,1.42V42.5q0,.24.21.24h1.18a1.21,1.21,0,0,1,.86,2.06,1.14,1.14,0,0,1-.86.35H49.7a.19.19,0,0,0-.21.22v4.74c0,.15.06.2.18.17l.7-.18.72-.2a.93.93,0,0,1,.84.13,1,1,0,0,1,.42.73V51c0,.09.06.12.17.08A1.13,1.13,0,0,1,53,51h8.68c.15,0,.22-.07.22-.21v-2c0-.14-.07-.21-.22-.21H53a1.16,1.16,0,0,1-.86-.35,1.23,1.23,0,0,1,0-1.72,1.16,1.16,0,0,1,.86-.35h4.71c.17,0,.25-.08.25-.24v-2.5c0-.14-.08-.21-.25-.21H53.8a1.1,1.1,0,0,1-.83-.35,1.18,1.18,0,0,1,.83-2h3.94c.17,0,.25-.08.25-.24v-1a1.4,1.4,0,0,1,.41-1,1.37,1.37,0,0,1,1-.43,1.4,1.4,0,0,1,1,.41,1.42,1.42,0,0,1,.42,1v1a.21.21,0,0,0,.24.24h4a1.17,1.17,0,0,1,.83,2,1.1,1.1,0,0,1-.83.35h-4q-.24,0-.24.21v2.5a.21.21,0,0,0,.24.24H66a1.21,1.21,0,1,1,0,2.42h-1c-.16,0-.25.07-.25.21v2c0,.14.09.21.25.21h1a1.21,1.21,0,1,1,0,2.42h-1a.22.22,0,0,0-.25.24v4.9c0,.69,0,1.22,0,1.6a4.21,4.21,0,0,1-.19,1.09,1.71,1.71,0,0,1-.38.72,2,2,0,0,1-.69.39,3.49,3.49,0,0,1-1,.2c-.36,0-.86,0-1.48,0-.79,0-1.51,0-2.15-.06a1.28,1.28,0,0,1-.9-.38,1.37,1.37,0,0,1-.39-.9,1,1,0,0,1,.33-.82,1.06,1.06,0,0,1,.83-.31c.55,0,1.15,0,1.79,0s1.11-.06,1.22-.18a2.71,2.71,0,0,0,.18-1.35v-5c0-.16-.07-.24-.22-.24H53a1.12,1.12,0,0,1-.82-.34,1.24,1.24,0,0,1-.39-.79c0-.12-.06-.15-.16-.08a.74.74,0,0,1-.35.16c-.72.21-1.25.37-1.61.46a.26.26,0,0,0-.21.29v8.29a1.32,1.32,0,0,1-.42,1,1.39,1.39,0,0,1-1,.4,1.36,1.36,0,0,1-1-.4,1.32,1.32,0,0,1-.42-1V53.79c0-.16-.07-.23-.21-.19l-2.68.59a1,1,0,0,1-.89-.2,1.1,1.1,0,0,1-.45-.82,1.25,1.25,0,0,1,.24-.92,1.24,1.24,0,0,1,.8-.53c1.29-.23,2.29-.43,3-.61.13,0,.19-.12.19-.3V45.37a.19.19,0,0,0-.21-.22h-.7a.27.27,0,0,0-.27.22c-.21,1.25-.45,2.47-.72,3.64a1.17,1.17,0,0,1-.55.78A1.18,1.18,0,0,1,43.24,49.93ZM57.69,57A1.25,1.25,0,0,1,58,58a1.29,1.29,0,0,1-.43.91,1.2,1.2,0,0,1-.9.34,1.28,1.28,0,0,1-.9-.39q-1.06-1.15-2.25-2.25a1.28,1.28,0,0,1-.39-.9,1.18,1.18,0,0,1,.36-.9,1.42,1.42,0,0,1,.94-.39,1.28,1.28,0,0,1,.94.36Q56.6,55.86,57.69,57Z"/><path class="cls-1" d="M71.82,61.73a1.11,1.11,0,0,1-.89.43,1.21,1.21,0,0,1-.93-.43,1.7,1.7,0,0,1-.39-1A1.67,1.67,0,0,1,70,59.61Q72.51,56,72.71,48.37a.19.19,0,0,0-.21-.21h-.78a1.5,1.5,0,0,1-1.08-.46,1.47,1.47,0,0,1-.45-1.07V41a1.55,1.55,0,0,1,1.53-1.53h8.69a1.45,1.45,0,0,1,1.07.46A1.43,1.43,0,0,1,81.93,41v5.66a1.43,1.43,0,0,1-.45,1.07,1.49,1.49,0,0,1-1.07.46H75.63q-.24,0-.24.21c0,.22,0,.54,0,1s0,.75,0,1,.07.19.21.19h4.86a1.5,1.5,0,0,1,1.5,1.5,68.78,68.78,0,0,1-.3,7.07,6,6,0,0,1-.79,2.83,2.11,2.11,0,0,1-1.7.61c-.75,0-1.66,0-2.73-.08A1.4,1.4,0,0,1,75,61.06a1.13,1.13,0,0,1,.34-.88,1.18,1.18,0,0,1,.92-.33c.44,0,1,0,1.77,0a.67.67,0,0,0,.63-.42,7.33,7.33,0,0,0,.35-1.9c.09-1,.14-2.47.14-4.41,0-.17-.08-.25-.24-.25H75.31c-.14,0-.23.08-.27.25A17.82,17.82,0,0,1,71.82,61.73ZM72.92,42v3.71a.21.21,0,0,0,.24.24h5.93c.15,0,.22-.08.22-.24V42c0-.14-.07-.21-.22-.21H73.16Q72.92,41.8,72.92,42ZM86.55,56.6a1.32,1.32,0,0,1-1,.41,1.34,1.34,0,0,1-1-.41,1.27,1.27,0,0,1-.42-1V41.48a1.3,1.3,0,0,1,.42-1,1.33,1.33,0,0,1,1-.4A1.37,1.37,0,0,1,87,41.48V55.64A1.29,1.29,0,0,1,86.55,56.6Zm4.22-17.15a1.4,1.4,0,0,1,1-.41,1.4,1.4,0,0,1,1.42,1.42V58.61c0,1.76-.19,2.84-.56,3.26s-1.35.63-2.93.63c-.39,0-1.14,0-2.25-.08a1.36,1.36,0,0,1-1-.41,1.3,1.3,0,0,1-.43-.95,1.12,1.12,0,0,1,.34-.89,1.17,1.17,0,0,1,.91-.35c.62,0,1.23.06,1.86.06a1.57,1.57,0,0,0,1-.2,2.28,2.28,0,0,0,.19-1.2v-18A1.37,1.37,0,0,1,90.77,39.45Z"/><path class="cls-1" d="M96.63,47.14v-.06a2.21,2.21,0,0,1,.08-2.52,25.1,25.1,0,0,0,2.71-5,1.71,1.71,0,0,1,.72-.87,1.48,1.48,0,0,1,1.08-.2,1.11,1.11,0,0,1,.81.52,1,1,0,0,1,.1,1s0,.1-.07.18l-.06.17c-.08.15,0,.22.13.22h5.74a.31.31,0,0,0,.32-.22c0-.07.08-.19.15-.35s.11-.28.14-.37a1.79,1.79,0,0,1,.74-.89,1.84,1.84,0,0,1,1.11-.27,1.11,1.11,0,0,1,.84.51,1,1,0,0,1,.1,1l-.16.4c-.07.15,0,.22.14.22h6.68a1.08,1.08,0,0,1,.79.34,1.17,1.17,0,0,1,.33.81,1.13,1.13,0,0,1-.33.8,1.05,1.05,0,0,1-.79.35h-7.08a.19.19,0,0,0-.22.22v1a.19.19,0,0,0,.22.22h6.43a.9.9,0,0,1,.68.28,1,1,0,0,1-.68,1.65h-6.43c-.15,0-.22.08-.22.24v.94c0,.16.07.24.22.24h6.43a.9.9,0,0,1,.68.28.94.94,0,0,1,.29.69,1,1,0,0,1-.29.69.88.88,0,0,1-.68.3h-6.43c-.15,0-.22.07-.22.21v1c0,.14.07.21.22.21h7.21a1,1,0,0,1,.71.28,1,1,0,0,1,.28.71,1,1,0,0,1-.28.73.94.94,0,0,1-.71.29h-7.81a.21.21,0,0,0-.24.24V54c0,.15.08.22.24.22h8.8a1.13,1.13,0,0,1,.81.35,1.1,1.1,0,0,1,.34.8,1.08,1.08,0,0,1-.34.8,1.15,1.15,0,0,1-.81.33h-7.24s0,0,0,0,0,0,0,0a48.09,48.09,0,0,0,7.83,2.68,1.26,1.26,0,0,1,.82.62,1.16,1.16,0,0,1,.12,1,1.3,1.3,0,0,1-.63.77,1.24,1.24,0,0,1-1,.09A42.68,42.68,0,0,1,110.2,58a.09.09,0,0,0-.12,0,.15.15,0,0,0-.07.12V61.3a1.36,1.36,0,0,1-.44,1,1.45,1.45,0,0,1-2.06,0,1.37,1.37,0,0,1-.45-1V58.13c0-.14-.07-.17-.21-.08a45.55,45.55,0,0,1-8.64,3.65,1.3,1.3,0,0,1-1-.09,1.32,1.32,0,0,1-.64-.77,1.19,1.19,0,0,1,.11-1,1.22,1.22,0,0,1,.8-.62,51.51,51.51,0,0,0,7.81-2.65s0,0,0-.07,0,0,0,0H97.76a1.15,1.15,0,0,1-.81-.33,1.09,1.09,0,0,1-.35-.8,1.11,1.11,0,0,1,.35-.8,1.13,1.13,0,0,1,.81-.35h9.06c.16,0,.24-.07.24-.22v-.75a.21.21,0,0,0-.24-.24h-6.54a1.55,1.55,0,0,1-1.53-1.53V46.63s0-.06,0-.06a.09.09,0,0,0-.07,0c0,.07-.1.17-.18.31l-.19.28a.82.82,0,0,1-.82.43A1,1,0,0,1,96.63,47.14Zm4.94-4v1c0,.15.08.22.24.22h5.63c.16,0,.24-.07.24-.22v-1c0-.15-.08-.22-.24-.22h-5.63C101.65,42.87,101.57,42.94,101.57,43.09Zm0,3.35v.94a.21.21,0,0,0,.24.24h5.63a.21.21,0,0,0,.24-.24v-.94a.21.21,0,0,0-.24-.24h-5.63A.21.21,0,0,0,101.57,46.44Zm0,3.35v1q0,.21.24.21h5.63q.24,0,.24-.21v-1q0-.21-.24-.21h-5.63Q101.57,49.58,101.57,49.79Z"/><path class="cls-1" d="M125.54,56.12a1.29,1.29,0,0,1-1-.4,1.32,1.32,0,0,1-.41-1V44.32a1.47,1.47,0,0,1,.45-1.07,1.39,1.39,0,0,1,1.06-.46h8a.21.21,0,0,0,.24-.24V39.84a1.4,1.4,0,0,1,.44-1,1.46,1.46,0,0,1,2.07,0,1.4,1.4,0,0,1,.44,1v2.71a.21.21,0,0,0,.24.24h8a1.57,1.57,0,0,1,1.53,1.53V54.75a1.3,1.3,0,0,1-.42,1,1.35,1.35,0,0,1-1,.4,1.3,1.3,0,0,1-1-.4,1.37,1.37,0,0,1-.38-1,.2.2,0,0,0-.22-.22h-6.52a.21.21,0,0,0-.24.24v6.82a1.4,1.4,0,0,1-.44,1,1.46,1.46,0,0,1-2.07,0,1.4,1.4,0,0,1-.44-1V54.75a.21.21,0,0,0-.24-.24h-6.52c-.14,0-.21.07-.21.22a1.37,1.37,0,0,1-.39,1A1.29,1.29,0,0,1,125.54,56.12Zm1.37-10.62v6.38c0,.17.08.25.24.25h6.49c.16,0,.24-.08.24-.25V45.5q0-.21-.24-.21h-6.49Q126.91,45.29,126.91,45.5Zm16.65-.21h-6.49q-.24,0-.24.21v6.38c0,.17.08.25.24.25h6.49a.22.22,0,0,0,.25-.25V45.5C143.81,45.36,143.72,45.29,143.56,45.29Z"/><path class="cls-1" d="M155.23,61.3a1.39,1.39,0,0,1-1.06-.43,1.55,1.55,0,0,1-.44-1.1v-18a1.5,1.5,0,0,1,2.57-1.06,1.4,1.4,0,0,1,.46,1.06V58.29c0,.15.07.22.21.22a16.61,16.61,0,0,0,8.17-2.72,15,15,0,0,0,5.05-6.64,1.42,1.42,0,0,1,.74-.78,1.31,1.31,0,0,1,1.06,0,1.43,1.43,0,0,1,.78,1.85,17.22,17.22,0,0,1-6.62,8.22A21.42,21.42,0,0,1,155.23,61.3Z"/><path class="cls-1" d="M181.75,51.94c-.44-1.79-.85-3.33-1.2-4.62a1.18,1.18,0,0,1,.13-1,1.28,1.28,0,0,1,.8-.57,1.37,1.37,0,0,1,1,.17,1.41,1.41,0,0,1,.63.82q.75,2.63,1.23,4.59a1.17,1.17,0,0,1-.16,1,1.29,1.29,0,0,1-.83.61,1.4,1.4,0,0,1-1.61-1Zm14.59-7a1.32,1.32,0,0,1,.94.43,1.26,1.26,0,0,1,.35,1c-.23,4.78-1.3,8.28-3.21,10.53s-5,3.7-9.26,4.36a1.23,1.23,0,0,1-.93-.22,1.4,1.4,0,0,1-.55-.83,1.14,1.14,0,0,1,.19-.92,1.17,1.17,0,0,1,.81-.5q5.46-.95,7.73-3.66c1.51-1.82,2.37-4.78,2.56-8.89a1.33,1.33,0,0,1,.43-.91A1.25,1.25,0,0,1,196.34,44.94Zm-6.26,6.92a1.34,1.34,0,0,1-1.84.43,1.33,1.33,0,0,1-.61-.84q-.7-2.76-1.26-4.82a1.23,1.23,0,0,1,.14-1,1.31,1.31,0,0,1,.82-.59,1.42,1.42,0,0,1,1.66,1q.91,3.46,1.24,4.77A1.25,1.25,0,0,1,190.08,51.86Z"/><path class="cls-1" d="M207.47,60.41a1.29,1.29,0,0,1-1,.1,1.39,1.39,0,0,1-.79-.66,1.15,1.15,0,0,1-.09-1,1.35,1.35,0,0,1,.65-.78,39.69,39.69,0,0,0,9-6.48A29.15,29.15,0,0,0,221,43.73c.06-.12,0-.19-.13-.19H208.68a1.33,1.33,0,0,1-1.32-1.31,1.33,1.33,0,0,1,1.32-1.32H223a1.3,1.3,0,0,1,.92.39,1.27,1.27,0,0,1,.39.93,5.7,5.7,0,0,1-.53,2.47,30.14,30.14,0,0,1-4.83,7c-.09.09-.08.19,0,.32q3.71,3.4,6.63,6.33a1.39,1.39,0,0,1,0,1.95,1.29,1.29,0,0,1-1,.39,1.39,1.39,0,0,1-1-.41q-3.65-3.7-6.54-6.36a.24.24,0,0,0-.35,0A41.4,41.4,0,0,1,207.47,60.41Z"/><path class="cls-1" d="M234.18,43.68a1.37,1.37,0,0,1-.71-.82,1.43,1.43,0,0,1,.1-1.09,1.34,1.34,0,0,1,.86-.69,1.41,1.41,0,0,1,1.12.08q3.12,1.58,5.71,3.08a1.34,1.34,0,0,1,.69.86,1.43,1.43,0,0,1-.15,1.1,1.33,1.33,0,0,1-.86.68,1.47,1.47,0,0,1-1.1-.14Q237.25,45.22,234.18,43.68Zm18.51-.35a1.42,1.42,0,0,1,.87.6,1.36,1.36,0,0,1,.2,1q-3.1,13.76-18.45,15.66a1.36,1.36,0,0,1-1.05-.28,1.43,1.43,0,0,1-.53-1,1.31,1.31,0,0,1,.25-1,1.36,1.36,0,0,1,.9-.53q6.78-.9,10.73-4.21a17.1,17.1,0,0,0,5.44-9.3,1.3,1.3,0,0,1,.62-.83A1.37,1.37,0,0,1,252.69,43.33Z"/><path class="cls-3" d="M39.05,108.05a1.8,1.8,0,0,1-1.32-.55,1.78,1.78,0,0,1-.55-1.31,1.7,1.7,0,0,1,.55-1.29,1.82,1.82,0,0,1,1.32-.53h2.11a.34.34,0,0,0,.38-.38V96.37a2.31,2.31,0,0,1,.7-1.69A2.25,2.25,0,0,1,43.91,94h9.82c.25,0,.38-.12.38-.34v-.38a2.33,2.33,0,0,1,4.66,0v.38c0,.22.13.34.38.34H69a2.46,2.46,0,0,1,2.41,2.41V104c0,.25.11.38.34.38h2.11a1.82,1.82,0,0,1,1.32.53,1.7,1.7,0,0,1,.55,1.29,1.78,1.78,0,0,1-.55,1.31,1.8,1.8,0,0,1-1.32.55H60.16a.23.23,0,0,0-.19.11.15.15,0,0,0,0,.19q3.13,5,13.17,7.53a1.75,1.75,0,0,1,1.21.91,2,2,0,0,1,.14,1.55,2.28,2.28,0,0,1-2.7,1.48A32.88,32.88,0,0,1,63,116a22,22,0,0,1-6.08-5.4c-.11-.2-.25-.21-.42,0a22.54,22.54,0,0,1-6.28,5.46,33,33,0,0,1-9.13,3.81,2.18,2.18,0,0,1-1.63-.23,2.31,2.31,0,0,1-1.07-1.29,1.75,1.75,0,0,1,.1-1.53,1.9,1.9,0,0,1,1.25-.93q10-2.49,13.17-7.53a.15.15,0,0,0,0-.19.23.23,0,0,0-.19-.11ZM66.58,92.16a2.16,2.16,0,0,1-1.59.65,2.06,2.06,0,0,1-1.56-.65,2.19,2.19,0,0,1-.64-1.59V89.38a.34.34,0,0,0-.38-.38h-12c-.23,0-.34.13-.34.38v1.19a2.17,2.17,0,0,1-.66,1.59,2.12,2.12,0,0,1-1.58.65,2.1,2.1,0,0,1-1.57-.65,2.22,2.22,0,0,1-.63-1.59V89.38a.34.34,0,0,0-.38-.38H39.51a1.88,1.88,0,0,1-1.9-1.9,1.88,1.88,0,0,1,1.9-1.91h5.76a.33.33,0,0,0,.38-.38v-.76a2.22,2.22,0,0,1,.63-1.59,2.14,2.14,0,0,1,1.57-.65,2.24,2.24,0,0,1,2.24,2.24v.76c0,.26.11.38.34.38h12a.33.33,0,0,0,.38-.38v-.76a2.19,2.19,0,0,1,.64-1.59A2.1,2.1,0,0,1,65,81.81a2.22,2.22,0,0,1,2.24,2.24v.76a.33.33,0,0,0,.38.38h5.76a1.88,1.88,0,0,1,1.9,1.91,1.88,1.88,0,0,1-1.9,1.9H67.61a.34.34,0,0,0-.38.38v1.19A2.2,2.2,0,0,1,66.58,92.16ZM45.86,97.93V104a.34.34,0,0,0,.38.38h7.49a.34.34,0,0,0,.38-.38V97.93c0-.22-.13-.33-.38-.33H46.24C46,97.6,45.86,97.71,45.86,97.93Zm20.78-.33H59.15c-.25,0-.38.11-.38.33V104a.34.34,0,0,0,.38.38h7.49A.34.34,0,0,0,67,104V97.93C67,97.71,66.89,97.6,66.64,97.6Z"/><path class="cls-3" d="M107.4,93.57c-.25,0-.38.12-.38.34v1.82a.34.34,0,0,0,.38.39h6.44a2.37,2.37,0,0,1,1.69.69,2.27,2.27,0,0,1,.72,1.68v7.78a2.46,2.46,0,0,1-2.41,2.41h-5.76c-.26,0-.33.12-.21.35q2.23,4.31,8.93,6.72a2,2,0,0,1,1.16,1.06,2,2,0,0,1,.06,1.57,2.08,2.08,0,0,1-1.16,1.2,2,2,0,0,1-1.63,0,20.81,20.81,0,0,1-10-7.84.18.18,0,0,0-.17-.08.32.32,0,0,0-.21.08,21.66,21.66,0,0,1-10.45,7.84,2.24,2.24,0,0,1-1.65,0,2,2,0,0,1-1.19-1.18,2,2,0,0,1,.06-1.57,2,2,0,0,1,1.17-1.06q6.65-2.41,8.89-6.72c.11-.23,0-.35-.22-.35H95.76a2.46,2.46,0,0,1-2.41-2.41V98.49a2.27,2.27,0,0,1,.72-1.68,2.36,2.36,0,0,1,1.69-.69h6.43a.34.34,0,0,0,.39-.39V93.91c0-.22-.13-.34-.39-.34H98.72A1.61,1.61,0,0,1,97,92.31c-.06-.2-.17-.25-.34-.13-1.18.85-2.09,1.48-2.71,1.9a1.51,1.51,0,0,1-1.39.17,1.78,1.78,0,0,1-1.06-1,.78.78,0,0,1-.09-.21c0-.2-.17-.24-.33-.13a2,2,0,0,1-1,.3H89a.21.21,0,0,0-.19.12.34.34,0,0,0,0,.26c.23.53,1.63,3.84,4.23,9.9a2.48,2.48,0,0,1,.09,1.57,2.15,2.15,0,0,1-.89,1.27,1.33,1.33,0,0,1-1.23.23,1.35,1.35,0,0,1-.93-.87c-.09-.17-.31-.74-.68-1.71s-.66-1.74-.89-2.31a.24.24,0,0,0-.13,0v16.76a2.12,2.12,0,1,1-4.23,0V104.71s-.07,0-.12,0a50,50,0,0,1-2,5.16,1.26,1.26,0,0,1-1.16.77,1.29,1.29,0,0,1-1.25-.68l0-.13a3.87,3.87,0,0,1-.13-4.15,48.57,48.57,0,0,0,4.36-12.1c.06-.26,0-.38-.25-.38H81.07a1.84,1.84,0,0,1-1.35-.56,1.8,1.8,0,0,1-.55-1.35,1.88,1.88,0,0,1,1.9-1.9h2.71a.33.33,0,0,0,.38-.38V84.56a2.12,2.12,0,1,1,4.23,0v4.49a.34.34,0,0,0,.39.38h1.31a1.74,1.74,0,0,1,1.69,1c.14.2.27.24.38.13a1.3,1.3,0,0,1,.26-.17,51.49,51.49,0,0,0,8.8-6.94,5,5,0,0,1,7.11,0,51.49,51.49,0,0,0,8.85,6.94,2.3,2.3,0,0,1,1,1.25,2.25,2.25,0,0,1-.08,1.59,1.71,1.71,0,0,1-1.06,1,1.59,1.59,0,0,1-1.4-.19c-.62-.39-1.52-1-2.71-1.86-.17-.12-.28-.07-.34.13a1.61,1.61,0,0,1-1.69,1.26Zm-9.91,11.48a.34.34,0,0,0,.39.38h4.31a.34.34,0,0,0,.39-.38V99.84c0-.26-.13-.38-.39-.38H97.88c-.26,0-.39.12-.39.38Zm2.25-15h10.11A.14.14,0,0,0,110,90c0-.06,0-.1,0-.13a53.21,53.21,0,0,1-4.87-4.7c-.19-.17-.37-.18-.51,0a46.19,46.19,0,0,1-4.91,4.74.1.1,0,0,0,0,.13A.14.14,0,0,0,99.74,90.06Zm11.89,9.4H107.4a.33.33,0,0,0-.38.38v5.21a.34.34,0,0,0,.38.38h4.23c.23,0,.34-.13.34-.38V99.84C112,99.58,111.86,99.46,111.63,99.46Z"/><path class="cls-3" d="M146.26,120.11a2.23,2.23,0,0,1-2.12-2.07,1.67,1.67,0,0,1,.51-1.35,1.69,1.69,0,0,1,1.35-.51c1.75.08,3.1.12,4.06.12a4.21,4.21,0,0,0,2.12-.29c.23-.2.34-.83.34-1.91V93.62a.33.33,0,0,0-.38-.38h-10a1.85,1.85,0,0,1-1.36-.56,2,2,0,0,1-.59-1.31.07.07,0,0,0-.08-.08.17.17,0,0,0-.13,0,1.84,1.84,0,0,1-1.44.64h-.59a.33.33,0,0,0-.38.38,43.93,43.93,0,0,1-2.33,13.24.7.7,0,0,0,.08.68c1.64,2.18,3.14,4.29,4.49,6.35a2.28,2.28,0,0,1-.51,3.09,1.92,1.92,0,0,1-2.83-.46q-1.27-1.95-3.22-4.66a.28.28,0,0,0-.21-.08c-.09,0-.14,0-.17.08a30.27,30.27,0,0,1-7.28,7.91,2.2,2.2,0,0,1-3.49-2.11,2.31,2.31,0,0,1,.86-1.48,26.31,26.31,0,0,0,7-8.13.48.48,0,0,0,0-.63q-2.67-3.39-6.23-7.24a2.07,2.07,0,0,1-.57-1.5,1.94,1.94,0,0,1,.66-1.46,2.07,2.07,0,0,1,1.52-.58,2,2,0,0,1,1.48.66c1.75,1.89,3.36,3.73,4.83,5.5l.1.07a.27.27,0,0,0,.15,0,.14.14,0,0,0,.09-.13,45.35,45.35,0,0,0,1.18-9.14.3.3,0,0,0-.34-.34h-9.18a1.86,1.86,0,0,1-1.4-.57,2,2,0,0,1-.55-1.38,1.92,1.92,0,0,1,.57-1.42,1.88,1.88,0,0,1,1.38-.57h4.78c.26,0,.38-.11.38-.34v-3.3a2.21,2.21,0,0,1,.66-1.63,2.26,2.26,0,0,1,3.21,0,2.23,2.23,0,0,1,.66,1.61v3.3c0,.23.13.34.38.34h4.87a1.84,1.84,0,0,1,1.36.55,2,2,0,0,1,.59,1.31.11.11,0,0,0,.06.11.28.28,0,0,0,.15,0,1.84,1.84,0,0,1,1.44-.68h10c.25,0,.38-.11.38-.34V84.73a2.32,2.32,0,0,1,2.28-2.29,2.32,2.32,0,0,1,2.29,2.29V89a.3.3,0,0,0,.34.34h1.06a2,2,0,0,1,2,2,1.84,1.84,0,0,1-.57,1.37,1.92,1.92,0,0,1-1.42.58h-1.06c-.22,0-.34.12-.34.38V114.1a26.56,26.56,0,0,1-.15,3.35,3.06,3.06,0,0,1-.86,1.77,3,3,0,0,1-1.82.85c-.74.08-1.88.13-3.43.13C149.05,120.2,147.53,120.17,146.26,120.11Zm1.18-10.83a2,2,0,0,1-1.61-.07,2.17,2.17,0,0,1-1.14-1.2,81.86,81.86,0,0,0-3.81-8.43,1.88,1.88,0,0,1-.13-1.6,2.11,2.11,0,0,1,1.1-1.19,2.13,2.13,0,0,1,1.68-.06,2.33,2.33,0,0,1,1.29,1.12q1.86,3.68,3.85,8.68a2.14,2.14,0,0,1,0,1.61A2.09,2.09,0,0,1,147.44,109.28Z"/><path class="cls-3" d="M180.83,107.63a.71.71,0,0,0,.26-.6v-3.17c0-.23-.13-.34-.38-.34h-8.26c-.25,0-.37.11-.37.34v5a2.16,2.16,0,1,1-4.32,0v-6.43a2.46,2.46,0,0,1,2.41-2.41h10.54a.34.34,0,0,0,.38-.38V98.27a.34.34,0,0,0-.38-.38H166.15a1.66,1.66,0,0,1-1.25-.55,1.78,1.78,0,0,1-.53-1.27,1.81,1.81,0,0,1,1.78-1.78h14.6c.23,0,.34-.11.34-.33a2.25,2.25,0,0,1,.68-1.65,2.15,2.15,0,0,1,1.61-.68h.08a2.17,2.17,0,0,1,1.61.68,2.25,2.25,0,0,1,.68,1.65.29.29,0,0,0,.33.33h14.61a1.81,1.81,0,0,1,1.78,1.78,1.78,1.78,0,0,1-.53,1.27,1.68,1.68,0,0,1-1.25.55H186.13a.33.33,0,0,0-.38.38v1.36a.33.33,0,0,0,.38.38h10.54a2.46,2.46,0,0,1,2.41,2.41v2.8c0,2.62-.23,4.24-.7,4.86s-1.61.93-3.45.93c-.34,0-1.66-.05-4-.17,0,0-.08,0-.08.07a.11.11,0,0,0,.08.1,64.05,64.05,0,0,0,10.29,4.53,1.83,1.83,0,0,1,1,2.5,2.12,2.12,0,0,1-1.18,1.12,2,2,0,0,1-1.61,0A58.75,58.75,0,0,1,186,111.9c-.17-.11-.25-.07-.25.13v6.39a2.27,2.27,0,0,1-.7,1.63,2.33,2.33,0,0,1-4-1.63V112c0-.06,0-.1-.11-.13a.21.21,0,0,0-.19,0,58.75,58.75,0,0,1-13.5,7.24,2,2,0,0,1-1.59,0,2.15,2.15,0,0,1-1.16-1.12,1.7,1.7,0,0,1,0-1.46,1.73,1.73,0,0,1,1.08-1Q175.64,112.12,180.83,107.63Zm14.69-19.18c-.22,0-.31.12-.25.34.17.4.39,1,.68,1.78a1.9,1.9,0,0,1-.07,1.63,2,2,0,0,1-1.25,1,2.37,2.37,0,0,1-1.73-.17,2.22,2.22,0,0,1-1.14-1.27c-.51-1.36-.91-2.36-1.19-3a.5.5,0,0,0-.51-.34h-.67a.69.69,0,0,0-.6.3,21.84,21.84,0,0,1-2.37,2.37,2.13,2.13,0,0,1-1.58.55,2.24,2.24,0,0,1-1.55-.68l-.38-.38a1.29,1.29,0,0,1-.4-1,1.26,1.26,0,0,1,.48-1s0-.06,0-.1-.05-.07-.08-.07h-5.08c-.2,0-.27.12-.21.34.17.4.39,1,.68,1.78a2.09,2.09,0,0,1-1.36,2.67,2.25,2.25,0,0,1-1.69-.17,2.4,2.4,0,0,1-1.14-1.27c-.51-1.36-.91-2.36-1.19-3a.5.5,0,0,0-.51-.34h-.76a.64.64,0,0,0-.55.3,30.19,30.19,0,0,1-2.83,3.17,2,2,0,0,1-1.53.55,2.29,2.29,0,0,1-1.52-.63,1.83,1.83,0,0,1-.57-1.42,2,2,0,0,1,.61-1.42,24.52,24.52,0,0,0,4.1-5.37,2.76,2.76,0,0,1,1.3-1.23,2.9,2.9,0,0,1,1.75-.21h.13a1.68,1.68,0,0,1,1.19,2.33c-.06.17,0,.25.16.25h8.26a2.15,2.15,0,0,1,1.58.64,2.07,2.07,0,0,1,.66,1.56.15.15,0,0,0,.06.13.14.14,0,0,0,.15,0,22.34,22.34,0,0,0,2.8-3.56,2.77,2.77,0,0,1,3.13-1.35h.08a1.6,1.6,0,0,1,1.17.89,1.5,1.5,0,0,1,0,1.44c-.12.17-.06.25.17.25h8.67a1.9,1.9,0,0,1,1.87,1.86,1.71,1.71,0,0,1-.56,1.29,1.78,1.78,0,0,1-1.31.53Zm-9.77,15.41V107a.73.73,0,0,0,.25.6,26.09,26.09,0,0,0,3.72,2.66.13.13,0,0,0,.19,0,.19.19,0,0,0,.11-.19l0-.42a2,2,0,0,1,.57-1.63,1.91,1.91,0,0,1,1.63-.61c.48,0,.94,0,1.4,0s.9-.08,1-.23a3.36,3.36,0,0,0,.17-1.46v-2c0-.23-.13-.34-.38-.34h-8.25C185.87,103.52,185.75,103.63,185.75,103.86Z"/><path class="cls-3" d="M235.73,112.07c.26,0,.39-.11.39-.34V91.29c0-.26-.13-.38-.39-.38H212.54a1.93,1.93,0,0,1-1.44-.6,2,2,0,0,1,0-2.83,1.92,1.92,0,0,1,1.44-.59h25.6a2.46,2.46,0,0,1,2.42,2.41v24.38a2.46,2.46,0,0,1-2.42,2.41h-25.6a2,2,0,0,1-1.44-.59,1.92,1.92,0,0,1-.59-1.4,2,2,0,0,1,.59-1.44,2,2,0,0,1,1.44-.59Z"/><path class="cls-3" d="M252.92,103.69a2.15,2.15,0,0,1-2.2-2.2,2.17,2.17,0,0,1,2.2-2.2h30.3a2.17,2.17,0,0,1,2.2,2.2,2.15,2.15,0,0,1-2.2,2.2Z"/><path class="cls-3" d="M297.23,116.81a2,2,0,0,1-1.63.15,2.13,2.13,0,0,1-1.24-1,1.79,1.79,0,0,1-.15-1.56,2.12,2.12,0,0,1,1-1.23,62.47,62.47,0,0,0,14.14-10.22,46.25,46.25,0,0,0,9.27-12.43c.09-.19,0-.29-.21-.29h-19.3a2.06,2.06,0,0,1-1.46-3.54,2,2,0,0,1,1.46-.61h22.52a2.08,2.08,0,0,1,2.07,2.07,8.72,8.72,0,0,1-.85,3.9,46.64,46.64,0,0,1-7.62,11c-.14.14-.12.31,0,.5q5.85,5.39,10.46,10a2.14,2.14,0,0,1,.64,1.55,2.11,2.11,0,0,1-.64,1.54,2.06,2.06,0,0,1-1.54.62,2.22,2.22,0,0,1-1.55-.66q-5.76-5.84-10.33-10a.36.36,0,0,0-.55,0A65.44,65.44,0,0,1,297.23,116.81Z"/><path class="cls-1" d="M212.38,143.58a.61.61,0,0,1-.45-.18.62.62,0,0,1-.19-.46v-6.21a.69.69,0,0,1,.2-.48.65.65,0,0,1,.47-.2h3.36a.1.1,0,0,0,.11-.11v-.71a.6.6,0,0,1,.18-.44.61.61,0,0,1,.45-.18.61.61,0,0,1,.62.62v.71a.1.1,0,0,0,.11.11h3.36a.68.68,0,0,1,.68.68v6.21a.6.6,0,0,1-.19.45.62.62,0,0,1-.46.19h0a.57.57,0,0,1-.44-.18A.65.65,0,0,1,220,143a.08.08,0,0,0-.09-.09h-2.65a.1.1,0,0,0-.11.1V145a.61.61,0,0,1-.18.45.6.6,0,0,1-.44.18.62.62,0,0,1-.63-.63V143c0-.06,0-.1-.11-.1h-2.65a.08.08,0,0,0-.09.09.64.64,0,0,1-.18.45.61.61,0,0,1-.45.18Zm.65-6.34v1.59c0,.07,0,.1.1.1h2.64c.08,0,.11,0,.11-.1v-1.59c0-.08,0-.11-.11-.11h-2.64C213.06,137.13,213,137.16,213,137.24Zm0,2.84v1.63c0,.07,0,.1.1.1h2.64c.08,0,.11,0,.11-.1v-1.63c0-.06,0-.1-.11-.1h-2.64A.09.09,0,0,0,213,140.08Zm4.1-2.84v1.59c0,.07,0,.1.11.1h2.65c.06,0,.09,0,.09-.1v-1.59c0-.08,0-.11-.09-.11h-2.65A.1.1,0,0,0,217.13,137.24Zm0,2.84v1.63c0,.07,0,.1.11.1h2.65c.06,0,.09,0,.09-.1v-1.63c0-.06,0-.1-.09-.1h-2.65A.1.1,0,0,0,217.13,140.08Z"/><path class="cls-1" d="M228.32,145.11a3.25,3.25,0,0,1-2.71-1,6.09,6.09,0,0,1-.76-3.58c0-1.35,0-2.93.12-4.75a.61.61,0,0,1,.21-.47.6.6,0,0,1,.46-.17.67.67,0,0,1,.44.2.6.6,0,0,1,.17.46c-.08,1.8-.12,3.38-.12,4.73a10.1,10.1,0,0,0,.12,1.72,2.34,2.34,0,0,0,.41,1,1.38,1.38,0,0,0,.67.49,3.08,3.08,0,0,0,1,.13c1.51,0,2.71-1,3.62-3a.55.55,0,0,1,.33-.32.57.57,0,0,1,.46,0,.6.6,0,0,1,.34.32.57.57,0,0,1,0,.46,7,7,0,0,1-2,2.84A4.39,4.39,0,0,1,228.32,145.11Z"/><path class="cls-1" d="M235.65,140.27a.53.53,0,0,1-.39-.15.5.5,0,0,1-.15-.38.52.52,0,0,1,.15-.38.53.53,0,0,1,.39-.16h1.47a.66.66,0,0,1,.48.2.63.63,0,0,1,.21.48v3a.34.34,0,0,0,.05.19,2.12,2.12,0,0,0,.75.74,4.23,4.23,0,0,0,1.34.36,23,23,0,0,0,2.53.11h2.85a.5.5,0,0,1,.37.17.51.51,0,0,1,.15.38.53.53,0,0,1-.18.38.6.6,0,0,1-.4.15h-2.84a16.49,16.49,0,0,1-3.35-.25,3.19,3.19,0,0,1-1.71-.9c-.05-.06-.09-.06-.14,0a10.53,10.53,0,0,1-1.21,1,.52.52,0,0,1-.43.09.53.53,0,0,1-.35-.27.64.64,0,0,1-.06-.47.71.71,0,0,1,.27-.41,11.49,11.49,0,0,0,1.06-.86.2.2,0,0,0,.06-.16v-2.71c0-.07,0-.11-.1-.11Zm.08-4.88a.59.59,0,0,1,.42-.15.62.62,0,0,1,.42.18c.37.39.78.83,1.24,1.34a.48.48,0,0,1,.13.4.59.59,0,0,1-.18.39.52.52,0,0,1-.41.13.6.6,0,0,1-.38-.19q-.42-.47-1.26-1.32a.56.56,0,0,1,0-.78Zm3,6.74a7.65,7.65,0,0,0,2.26-2.52,6.31,6.31,0,0,0,.82-3.08v-.13c0-.08,0-.11-.1-.11H240a.57.57,0,0,1-.41-.17.56.56,0,0,1-.16-.41.56.56,0,0,1,.57-.56h2.46a.7.7,0,0,1,.69.68v.34a9.45,9.45,0,0,0,.6,3.51,6,6,0,0,0,1.7,2.44.68.68,0,0,1,.23.41.64.64,0,0,1-.51.71.55.55,0,0,1-.45-.11,7.26,7.26,0,0,1-2.27-3.7s0,0-.06,0a9.15,9.15,0,0,1-2.89,3.7.64.64,0,0,1-.48.11.61.61,0,0,1-.41-.27.55.55,0,0,1-.1-.45A.64.64,0,0,1,238.77,142.13Z"/><path class="cls-1" d="M249.89,144.81a2.42,2.42,0,0,1-1.77-.92,3,3,0,0,1-.84-2,2.27,2.27,0,0,1,1.08-1.85,5.67,5.67,0,0,1,2.92-.93c.06,0,.09,0,.11-.09.12-.92.21-1.67.26-2.28,0-.08,0-.11-.09-.11h-2.87a.49.49,0,0,1-.38-.16.52.52,0,0,1-.15-.38.56.56,0,0,1,.15-.39.52.52,0,0,1,.38-.15h3.53a.65.65,0,0,1,.47.2.69.69,0,0,1,.2.48v.4c-.16,1.49-.25,2.28-.26,2.37s0,.11.08.11a10.68,10.68,0,0,1,2.06.34c.07,0,.1,0,.1-.07,0-.65,0-1.41,0-2.27a.58.58,0,0,1,.18-.43.6.6,0,0,1,.43-.17.56.56,0,0,1,.42.18.58.58,0,0,1,.18.43c0,.93,0,1.81-.06,2.63a.13.13,0,0,0,.09.14,11,11,0,0,1,1.36.66.59.59,0,0,1,.27.35.55.55,0,0,1,0,.45.56.56,0,0,1-.34.26.48.48,0,0,1-.42,0c-.34-.19-.65-.34-.91-.46H256a.05.05,0,0,0,0,.05,6.22,6.22,0,0,1-.63,2.44,4.05,4.05,0,0,1-1.5,1.38.54.54,0,0,1-.45.05.58.58,0,0,1-.37-.28.48.48,0,0,1-.07-.42.54.54,0,0,1,.26-.36,2.74,2.74,0,0,0,1.15-1.11,6.06,6.06,0,0,0,.46-2.13.12.12,0,0,0-.1-.13,9.49,9.49,0,0,0-2.15-.38c-.07,0-.11,0-.12.08q-.18,1.17-.39,2a8.91,8.91,0,0,1-.43,1.32,2.44,2.44,0,0,1-.5.77,1.5,1.5,0,0,1-.56.38A1.87,1.87,0,0,1,249.89,144.81Zm1.21-4.61a4.05,4.05,0,0,0-1.89.59,1.27,1.27,0,0,0-.66,1A2,2,0,0,0,249,143a1.25,1.25,0,0,0,.89.58c.5,0,.94-1.11,1.31-3.33,0,0,0,0,0-.05A.09.09,0,0,0,251.1,140.2Z"/><path class="cls-1" d="M260.77,145a.64.64,0,0,1-.46-.11.59.59,0,0,1-.27-.4,21.3,21.3,0,0,1,0-8.71.55.55,0,0,1,.27-.39.59.59,0,0,1,.46-.11.49.49,0,0,1,.38.22.59.59,0,0,1,.08.43,19.92,19.92,0,0,0,0,8.42.6.6,0,0,1-.08.43A.52.52,0,0,1,260.77,145Zm4.41.06a3.08,3.08,0,0,1-2-.58,2,2,0,0,1-.71-1.64,1.84,1.84,0,0,1,.7-1.54,3.09,3.09,0,0,1,2-.56,3.52,3.52,0,0,1,1.15.2c.07,0,.11,0,.11-.06v-2.73a.1.1,0,0,0-.11-.11h-2.95a.53.53,0,0,1-.39-.16.52.52,0,0,1-.15-.38.51.51,0,0,1,.54-.54h2.95a.1.1,0,0,0,.11-.11v-1.21a.57.57,0,0,1,.17-.43A.61.61,0,0,1,267,135a.57.57,0,0,1,.42.17.58.58,0,0,1,.18.43v1.21c0,.07,0,.11.09.11h1.41a.52.52,0,0,1,.38.15.53.53,0,0,1,.16.39.55.55,0,0,1-.54.54h-1.41c-.06,0-.09,0-.09.11v3.43a.19.19,0,0,0,.07.17,16.93,16.93,0,0,1,1.6,1.41.58.58,0,0,1,.16.42.56.56,0,0,1-.16.41.58.58,0,0,1-.42.16.62.62,0,0,1-.41-.18l-.81-.77s-.06,0-.08,0C267.4,144.44,266.59,145.05,265.18,145.05Zm-.06-3.22c-1,0-1.44.33-1.44,1s.48,1.14,1.44,1.14a1.35,1.35,0,0,0,1-.33,1.5,1.5,0,0,0,.31-1v-.27a.19.19,0,0,0-.1-.15A2.45,2.45,0,0,0,265.12,141.83Z"/><path class="cls-1" d="M280.24,143.86a5.29,5.29,0,1,1,1.54-3.73A5.1,5.1,0,0,1,280.24,143.86Zm-.85-6.62a4.08,4.08,0,1,0,1.2,2.89A3.94,3.94,0,0,0,279.39,137.24Z"/><path class="cls-1" d="M290.9,144.35c.32,0,.5,0,.56-.08a1,1,0,0,0,.08-.54v-1.79a.1.1,0,0,0-.11-.11h-5.5q-.1,0-.12.12a6.38,6.38,0,0,1-1.43,3.17.57.57,0,0,1-.44.22.73.73,0,0,1-.49-.15.52.52,0,0,1-.22-.39.58.58,0,0,1,.13-.45,5.06,5.06,0,0,0,1-2,12.15,12.15,0,0,0,.29-3v-3.76a.65.65,0,0,1,.2-.48.67.67,0,0,1,.48-.2h6.79a.69.69,0,0,1,.48.2.65.65,0,0,1,.2.48v8.08a2.51,2.51,0,0,1-.26,1.46,2.16,2.16,0,0,1-1.39.28c-.28,0-.76,0-1.43,0a.58.58,0,0,1-.39-.17.52.52,0,0,1-.18-.4.5.5,0,0,1,.52-.54Zm.53-3.56a.1.1,0,0,0,.11-.11V139c0-.08,0-.11-.11-.11h-5.37c-.07,0-.1,0-.1.11v.93c0,.19,0,.45,0,.77,0,.07,0,.11.09.11ZM286,136.16v1.56c0,.07,0,.1.1.1h5.37c.08,0,.11,0,.11-.1v-1.56c0-.08,0-.11-.11-.11h-5.37C286,136.05,286,136.08,286,136.16Z"/><path class="cls-1" d="M304.24,143.86a5.29,5.29,0,1,1,1.54-3.73A5.1,5.1,0,0,1,304.24,143.86Zm-.85-6.62a4.08,4.08,0,1,0,1.2,2.89A3.94,3.94,0,0,0,303.39,137.24Z"/><path class="cls-1" d="M308.83,145.41a.65.65,0,0,1-.45-.19.62.62,0,0,1-.19-.46v-9a.65.65,0,0,1,.2-.48.69.69,0,0,1,.48-.2h7.27a.69.69,0,0,1,.48.2.65.65,0,0,1,.2.48v9a.62.62,0,0,1-.19.46.64.64,0,0,1-.45.19h0a.62.62,0,0,1-.63-.63c0-.06,0-.09-.1-.09h-5.87a.08.08,0,0,0-.09.09.61.61,0,0,1-.18.45.64.64,0,0,1-.45.18Zm.65-9.11v2.82c0,.07,0,.11.1.11h5.85a.1.1,0,0,0,.11-.11V136.3a.1.1,0,0,0-.11-.11h-5.85C309.51,136.19,309.48,136.23,309.48,136.3Zm0,4.12v3.09c0,.07,0,.1.1.1h5.85c.08,0,.11,0,.11-.1v-3.09a.1.1,0,0,0-.11-.11h-5.85C309.51,140.31,309.48,140.35,309.48,140.42Z"/><path class="cls-1" d="M320.43,137.19A.51.51,0,0,1,320,137a.56.56,0,0,1,0-.76.51.51,0,0,1,.39-.16h4.21a.1.1,0,0,0,.11-.11v-.55a.57.57,0,0,1,.17-.43.6.6,0,0,1,.43-.17.61.61,0,0,1,.42.17.57.57,0,0,1,.17.43V136a.1.1,0,0,0,.11.11h2.54a.51.51,0,0,1,.38.16.53.53,0,0,1,0,.76.51.51,0,0,1-.38.16h-2.54a.1.1,0,0,0-.11.11v1.1a.1.1,0,0,0,.11.11h2.12a.54.54,0,0,1,.38.15.57.57,0,0,1,.16.39.53.53,0,0,1-.16.38.51.51,0,0,1-.38.16h-2.12a.1.1,0,0,0-.11.11v2a.16.16,0,0,0,.09.16,16.86,16.86,0,0,1,2.41,1.73.49.49,0,0,1,.19.39.56.56,0,0,1-.14.41.51.51,0,0,1-.4.19.58.58,0,0,1-.42-.14,20.77,20.77,0,0,0-1.66-1.31c-.06,0-.1,0-.11,0a2.14,2.14,0,0,1-.79,1.52,3.36,3.36,0,0,1-1.92.46,3,3,0,0,1-1.94-.58,1.92,1.92,0,0,1-.7-1.58,1.84,1.84,0,0,1,.63-1.44,2.94,2.94,0,0,1,2-.57,4.64,4.64,0,0,1,1.45.24c.07,0,.11,0,.11-.06V139.7a.1.1,0,0,0-.11-.11h-3.79a.51.51,0,0,1-.39-.16.52.52,0,0,1-.15-.38.56.56,0,0,1,.15-.39.54.54,0,0,1,.39-.15h3.79a.1.1,0,0,0,.11-.11v-1.1a.1.1,0,0,0-.11-.11Zm2.76,6.84a1.7,1.7,0,0,0,1.21-.33,1.78,1.78,0,0,0,.35-1.23c0-.07,0-.11-.11-.15a3.39,3.39,0,0,0-1.33-.3,2.23,2.23,0,0,0-1.15.23.77.77,0,0,0-.35.7,1,1,0,0,0,.36.8A1.63,1.63,0,0,0,323.19,144Z"/><path class="cls-1" d="M331.93,137.16a.53.53,0,0,1-.39-.16.57.57,0,0,1-.17-.41.52.52,0,0,1,.16-.4.54.54,0,0,1,.39-.17c2.91,0,5.8-.08,8.65-.21a.57.57,0,0,1,.6.54.58.58,0,0,1-.14.42.61.61,0,0,1-.4.21,8.38,8.38,0,0,0-4.09,1.45,3.27,3.27,0,0,0-1.35,2.63,2.69,2.69,0,0,0,.87,2.14,3.35,3.35,0,0,0,2.3.77,8.13,8.13,0,0,0,.92-.06.56.56,0,0,1,.43.12.58.58,0,0,1,.22.38.68.68,0,0,1-.12.44.52.52,0,0,1-.39.22,8.07,8.07,0,0,1-1.11.07,4.74,4.74,0,0,1-3.26-1.06,3.65,3.65,0,0,1-1.21-2.9,4,4,0,0,1,.77-2.38,5.68,5.68,0,0,1,2.25-1.73h0s0,0,0,0Q334.47,137.15,331.93,137.16Zm6.84,1.5a.58.58,0,0,1,.43,0,.56.56,0,0,1,.33.27l.54,1a.53.53,0,0,1,0,.41.5.5,0,0,1-.27.3.58.58,0,0,1-.41,0,.54.54,0,0,1-.33-.26c-.07-.11-.16-.28-.28-.49s-.21-.38-.26-.5a.43.43,0,0,1,0-.4A.51.51,0,0,1,338.77,138.66Zm2.56-.2c.13.22.31.56.55,1a.49.49,0,0,1,0,.41.5.5,0,0,1-.28.32.51.51,0,0,1-.42,0,.57.57,0,0,1-.33-.28c-.06-.12-.15-.28-.28-.5s-.22-.37-.28-.48a.53.53,0,0,1,0-.41.6.6,0,0,1,.27-.32.58.58,0,0,1,.43,0A.54.54,0,0,1,341.33,138.46Z"/><rect class="cls-2" x="279.46" y="157.48" width="62.12" height="30.67" rx="15.34"/><path class="cls-4" d="M326.24,188.52H294.8a15.71,15.71,0,1,1,0-31.41h31.44a15.71,15.71,0,1,1,0,31.41ZM294.8,157.85a15,15,0,1,0,0,29.93h31.44a15,15,0,1,0,0-29.93Z"/><path class="cls-1" d="M288.41,171.75a.27.27,0,0,1-.19-.08.27.27,0,0,1,0-.36.27.27,0,0,1,.19-.08H290a.26.26,0,0,1,0,.52Zm.15-.83a.24.24,0,0,1-.18-.07.27.27,0,0,1,0-.36.25.25,0,0,1,.18-.08h1.25a.25.25,0,0,1,.18.08.27.27,0,0,1,0,.36.24.24,0,0,1-.18.07Zm-.25,4.23V174a.28.28,0,0,1,.1-.22.27.27,0,0,1,.22-.1h1.12a.32.32,0,0,1,.23.1.31.31,0,0,1,.09.22v.84a.32.32,0,0,1-.32.33h-.84s0,0,0,0a.17.17,0,0,1-.07.14.18.18,0,0,1-.14.06h-.08a.27.27,0,0,1-.29-.29Zm.29-2.58a.28.28,0,0,1-.25-.25.25.25,0,0,1,.08-.17.22.22,0,0,1,.17-.07h1.2a.21.21,0,0,1,.17.07.25.25,0,0,1,.08.17.23.23,0,0,1-.08.17.21.21,0,0,1-.17.08Zm0,.82a.26.26,0,0,1-.17-.07.25.25,0,0,1-.08-.18.25.25,0,0,1,.08-.17.22.22,0,0,1,.17-.07h1.2a.21.21,0,0,1,.17.07.25.25,0,0,1,.08.17.25.25,0,0,1-.08.18.24.24,0,0,1-.17.07Zm.29.87v.42s0,0,0,0h.55s0,0,0,0v-.42s0,0,0,0h-.55S288.89,174.22,288.89,174.26Zm4.34-.66a.27.27,0,0,1,.19.08.25.25,0,0,1,.07.19.24.24,0,0,1-.08.19.25.25,0,0,1-.18.08h-1s-.05,0-.05,0v.92a.29.29,0,0,1-.09.22.29.29,0,0,1-.21.09.31.31,0,0,1-.31-.31v-.92s0,0-.05,0h-1.07a.25.25,0,0,1-.18-.08.24.24,0,0,1-.08-.19.22.22,0,0,1,.08-.19.25.25,0,0,1,.18-.08h1.07s.05,0,.05,0v-.73s0,0-.05,0h-.89a.29.29,0,0,1-.18-.07.27.27,0,0,1,0-.36.25.25,0,0,1,.18-.08h.89s.05,0,.05,0v-.68a0,0,0,0,0-.05,0h-1.07a.26.26,0,0,1-.19-.08.27.27,0,0,1,0-.36.26.26,0,0,1,.19-.08h.47s0,0,0,0q-.13-.28-.21-.42a.19.19,0,0,1,0-.18.21.21,0,0,1,.14-.12.36.36,0,0,1,.23,0,.31.31,0,0,1,.18.16c.07.13.16.32.26.54a.05.05,0,0,0,.06,0h.54a.08.08,0,0,0,.08,0c.06-.12.16-.29.27-.53a.33.33,0,0,1,.16-.17.31.31,0,0,1,.23,0,.22.22,0,0,1,.16.31,4.08,4.08,0,0,1-.21.42,0,0,0,0,0,0,0h.31a.26.26,0,0,1,0,.52h-.92a0,0,0,0,0-.05,0v.68s0,0,.05,0h.82a.25.25,0,0,1,.18.44.29.29,0,0,1-.18.07h-.82s-.05,0-.05,0v.73s0,0,.05,0Z"/><path class="cls-1" d="M296.45,175.21a1.57,1.57,0,0,1-1.3-.47,2.92,2.92,0,0,1-.37-1.71c0-.65,0-1.4.06-2.28a.32.32,0,0,1,.1-.22.31.31,0,0,1,.44,0,.33.33,0,0,1,.08.22c0,.86-.06,1.61-.06,2.26a4.59,4.59,0,0,0,.06.82,1,1,0,0,0,.19.49.66.66,0,0,0,.32.24,1.61,1.61,0,0,0,.48.06c.72,0,1.3-.49,1.73-1.46a.26.26,0,0,1,.16-.15.33.33,0,0,1,.22,0,.29.29,0,0,1,.16.38,3.41,3.41,0,0,1-1,1.36A2.1,2.1,0,0,1,296.45,175.21Z"/><path class="cls-1" d="M301.14,173.63a5.25,5.25,0,0,1-.68-.52.57.57,0,0,1-.13-.4.55.55,0,0,1,.14-.41,4.47,4.47,0,0,1,.7-.52c.59-.37,1.21-.82,1.87-1.33a.33.33,0,0,1,.22-.06.27.27,0,0,1,.2.11.24.24,0,0,1,.07.21.27.27,0,0,1-.11.19c-.66.51-1.29,1-1.88,1.34a3.62,3.62,0,0,0-.43.3.22.22,0,0,0-.09.17.21.21,0,0,0,.08.17,4.23,4.23,0,0,0,.39.29,24.8,24.8,0,0,1,2.11,1.59.32.32,0,0,1,.1.2.28.28,0,0,1-.08.2.28.28,0,0,1-.22.1.32.32,0,0,1-.23-.08C302.5,174.62,301.82,174.11,301.14,173.63Z"/><path class="cls-1" d="M306.24,175.15a.32.32,0,0,1-.23-.05.25.25,0,0,1-.12-.19,10,10,0,0,1,0-4.17.26.26,0,0,1,.12-.19.37.37,0,0,1,.23-.05.22.22,0,0,1,.17.11.21.21,0,0,1,0,.2,9.28,9.28,0,0,0-.21,2,9.18,9.18,0,0,0,.21,2,.23.23,0,0,1,0,.21A.21.21,0,0,1,306.24,175.15Zm2.1,0a1.44,1.44,0,0,1-.95-.28.93.93,0,0,1-.34-.78.89.89,0,0,1,.34-.74,1.47,1.47,0,0,1,.95-.27,1.78,1.78,0,0,1,.56.1s.05,0,.05,0v-1.31a0,0,0,0,0-.05-.05h-1.42a.24.24,0,0,1-.18-.07.26.26,0,0,1-.08-.19.25.25,0,0,1,.08-.18.24.24,0,0,1,.18-.07h1.42s.05,0,.05-.06v-.58a.27.27,0,0,1,.28-.28.28.28,0,0,1,.21.08.3.3,0,0,1,.08.2v.58s0,.06.05.06h.67a.24.24,0,0,1,.18.07.25.25,0,0,1,.08.18.26.26,0,0,1-.08.19.24.24,0,0,1-.18.07h-.67a0,0,0,0,0-.05.05v1.65a.09.09,0,0,0,0,.08,10.12,10.12,0,0,1,.76.67.3.3,0,0,1,.08.2.27.27,0,0,1-.28.28.37.37,0,0,1-.2-.09s-.14-.14-.38-.37c0,0,0,0,0,0C309.41,174.89,309,175.18,308.34,175.18Zm0-1.54q-.69,0-.69.48t.69.54a.66.66,0,0,0,.48-.15A.71.71,0,0,0,309,174v-.12a.1.1,0,0,0-.05-.08A1.27,1.27,0,0,0,308.32,173.64Z"/><path class="cls-1" d="M313.79,175.12a3.24,3.24,0,0,1-1.59-.33,1,1,0,0,1-.59-.9,1.93,1.93,0,0,1,.67-1.22.3.3,0,0,1,.2-.1.31.31,0,0,1,.21.07.23.23,0,0,1,.09.18.25.25,0,0,1-.07.2,1.45,1.45,0,0,0-.48.81.59.59,0,0,0,.41.54,2.6,2.6,0,0,0,1.15.21,7.45,7.45,0,0,0,1.64-.19.28.28,0,0,1,.2,0,.29.29,0,0,1,.12.18.26.26,0,0,1,0,.21.3.3,0,0,1-.17.12A8.45,8.45,0,0,1,313.79,175.12Zm-1.4-4.36h2.81a.24.24,0,0,1,.18.07.27.27,0,0,1,.08.19.26.26,0,0,1-.08.19.25.25,0,0,1-.18.08h-2.81a.25.25,0,0,1-.18-.08.22.22,0,0,1-.08-.19.24.24,0,0,1,.08-.19A.24.24,0,0,1,312.39,170.76Z"/><path class="cls-1" d="M317.47,171.56a.24.24,0,0,1-.18-.07.25.25,0,0,1-.08-.18.26.26,0,0,1,.08-.19.24.24,0,0,1,.18-.07h1a.07.07,0,0,0,.06,0c0-.18.06-.32.08-.43a.31.31,0,0,1,.11-.2.27.27,0,0,1,.21-.07.27.27,0,0,1,.19.1.26.26,0,0,1,.06.21l-.07.37s0,.06,0,.06h2.4a.24.24,0,0,1,.18.07.26.26,0,0,1,.08.19.25.25,0,0,1-.08.18.24.24,0,0,1-.18.07H319a.06.06,0,0,0-.06.05,9.51,9.51,0,0,1-.4,1.1h0a3.21,3.21,0,0,1,1.31-.29,1.87,1.87,0,0,1,1.2.33,1.17,1.17,0,0,1,.41,1,1.21,1.21,0,0,1-.57,1,2.67,2.67,0,0,1-1.53.39,7.43,7.43,0,0,1-1.15-.09.28.28,0,0,1-.17-.11.21.21,0,0,1,0-.2.27.27,0,0,1,.11-.17.25.25,0,0,1,.19,0,6.87,6.87,0,0,0,1.06.1,2.06,2.06,0,0,0,1.1-.26.8.8,0,0,0,.4-.69c0-.5-.35-.75-1-.75a2.87,2.87,0,0,0-1.36.35.56.56,0,0,1-.5,0,.23.23,0,0,1-.14-.16.26.26,0,0,1,0-.21,8.94,8.94,0,0,0,.53-1.35s0-.05,0-.05Z"/><path class="cls-1" d="M323.49,173.46a.3.3,0,0,1-.17-.12.23.23,0,0,1,0-.21c.06-.39.13-.8.19-1.25a.31.31,0,0,1,.34-.26.23.23,0,0,1,.2.1.26.26,0,0,1,.05.21c-.06.43-.1.73-.13.91v0h0a3.23,3.23,0,0,1,.87-.44,3,3,0,0,1,.95-.17c1.09,0,1.63.44,1.63,1.32a1.34,1.34,0,0,1-.63,1.18,3.47,3.47,0,0,1-1.86.4c-.3,0-.63,0-1,0a.31.31,0,0,1-.18-.09.26.26,0,0,1-.06-.21.21.21,0,0,1,.08-.17.24.24,0,0,1,.2-.06q.6.06,1,.06a2.69,2.69,0,0,0,1.35-.28.87.87,0,0,0,.47-.79c0-.53-.35-.8-1.05-.8a2.31,2.31,0,0,0-.8.16,3.81,3.81,0,0,0-.88.44A.64.64,0,0,1,323.49,173.46Zm.77-2.87c.72.08,1.43.13,2.13.14a.25.25,0,0,1,.18.08.27.27,0,0,1,0,.36.26.26,0,0,1-.19.08,18.48,18.48,0,0,1-2.2-.15A.22.22,0,0,1,324,171a.26.26,0,0,1-.05-.19.25.25,0,0,1,.1-.18A.35.35,0,0,1,324.26,170.59Z"/><path class="cls-1" d="M329.71,174l2.8-1.15h0l-2.8-1.15a.36.36,0,0,1-.19-.15.46.46,0,0,1-.08-.24.18.18,0,0,1,.09-.16.19.19,0,0,1,.18,0l2.89,1.28a.46.46,0,0,1,.21.18.5.5,0,0,1,.08.27.5.5,0,0,1-.08.26.46.46,0,0,1-.21.18l-2.89,1.28a.19.19,0,0,1-.18,0,.18.18,0,0,1-.09-.16.41.41,0,0,1,.08-.24A.33.33,0,0,1,329.71,174Z"/></g></g></svg>