<svg xmlns="http://www.w3.org/2000/svg" viewBox="0 0 425.28 193.69"><defs><style>.cls-1{fill:#600;stroke:#fff100;stroke-miterlimit:10;stroke-width:2px;}.cls-2{fill:#fff;}.cls-3{fill:#faee00;}.cls-4{fill:#fff100;}.cls-5{fill:#c30d23;}</style></defs><g id="レイヤー_2" data-name="レイヤー 2"><g id="レイヤー_10" data-name="レイヤー 10"><rect class="cls-1" x="1" y="1" width="423.28" height="191.69" rx="19.08"/><path class="cls-2" d="M26,46.27c.13-.06.14-.14.05-.23a17.35,17.35,0,0,1-3.63-4.74.14.14,0,0,0-.09,0,.08.08,0,0,0-.07,0A32.47,32.47,0,0,1,17.86,50a1,1,0,0,1-.77.46,1.09,1.09,0,0,1-.86-.27,1.27,1.27,0,0,1-.43-.84,1.31,1.31,0,0,1,.22-.91,32,32,0,0,0,5.3-13.3c0-.12,0-.18-.16-.18H17.05a1,1,0,0,1-.75-.3,1,1,0,0,1-.3-.75,1,1,0,0,1,1.05-1h4.39q.21,0,.21-.24t.09-1.14a1.17,1.17,0,0,1,.41-.85,1.27,1.27,0,0,1,.9-.31,1.14,1.14,0,0,1,.83.38,1.16,1.16,0,0,1,.3.88c0,.12,0,.3,0,.53s0,.41,0,.54.05.21.16.21H35.65a1,1,0,0,1,1,1,1,1,0,0,1-.3.75,1,1,0,0,1-.74.3H24a.22.22,0,0,0-.23.18c-.09.64-.21,1.28-.35,1.91,0,.16,0,.23.16.23H33.88a1,1,0,0,1,.72.29,1,1,0,0,1,.3.71,4.78,4.78,0,0,1-.41,2,17.74,17.74,0,0,1-4.28,5.83c-.1.1-.09.17,0,.23a25.32,25.32,0,0,0,5.88,2.54,1,1,0,0,1,.65.53,1,1,0,0,1,.05.84,1.15,1.15,0,0,1-.58.66,1.12,1.12,0,0,1-.88.09,26,26,0,0,1-7-3.17.27.27,0,0,0-.32,0A27.11,27.11,0,0,1,20.88,51a1.12,1.12,0,0,1-.86-.08,1.21,1.21,0,0,1-.58-.69,1,1,0,0,1,0-.84,1.05,1.05,0,0,1,.65-.53A26.21,26.21,0,0,0,26,46.27ZM24.93,41A15.38,15.38,0,0,0,28,44.67c.09.08.2.07.32,0a15.68,15.68,0,0,0,4-5.16q.09-.18-.12-.18H23.09a.23.23,0,0,0-.25.21l-.35,1.11a.05.05,0,0,0,0,.08.06.06,0,0,0,.09,0l.52-.23a1.27,1.27,0,0,1,1-.09A1.4,1.4,0,0,1,24.93,41Z"/><path class="cls-2" d="M40.18,41.44a1,1,0,0,1-.74-.3,1,1,0,0,1-.3-.73,1.05,1.05,0,0,1,.3-.75,1,1,0,0,1,.74-.32H43a1.37,1.37,0,0,1,1.33,1.33v5.79a.75.75,0,0,0,.11.37,4.07,4.07,0,0,0,2.29,1.79,20.19,20.19,0,0,0,5.2.56s.05,0,.05,0,0,0-.05,0a1.21,1.21,0,0,1-.7-1.14v-.31q0-.21-.18-.21h-5a.94.94,0,0,1-.68-.27,1,1,0,0,1-.27-.68.94.94,0,0,1,1-.95h5q.18,0,.18-.21V44.5c0-.13-.06-.2-.18-.2H46.62A.92.92,0,0,1,46,44a.93.93,0,0,1,.65-1.59h4.47q.18,0,.18-.21v-.82q0-.21-.18-.21H46.46a1,1,0,0,1-.7-.29.91.91,0,0,1-.3-.68,1,1,0,0,1,.3-.7,1,1,0,0,1,.7-.3h1.81c.13,0,.17-.07.14-.21-.21-.9-.38-1.58-.51-2a.23.23,0,0,0-.25-.21H46.16a.92.92,0,0,1-.69-.29.94.94,0,0,1-.29-.68,1,1,0,0,1,.29-.7.93.93,0,0,1,.69-.3h4.93c.12,0,.18-.06.18-.19v-.83c0-.13-.06-.19-.18-.19H46.53a.91.91,0,0,1-.65-.27.87.87,0,0,1-.28-.66.85.85,0,0,1,.28-.66.91.91,0,0,1,.65-.27h4.58a.14.14,0,0,0,.16-.16,1.06,1.06,0,0,1,.33-.79,1.07,1.07,0,0,1,.79-.33h.35a1.06,1.06,0,0,1,.77.33,1.09,1.09,0,0,1,.32.79c0,.11.06.16.19.16h4.23a.91.91,0,0,1,.65.27.85.85,0,0,1,.28.66.87.87,0,0,1-.28.66.91.91,0,0,1-.65.27H54c-.14,0-.21.06-.21.19v.83c0,.13.07.19.21.19h4.58a1,1,0,0,1,.69.3,1,1,0,0,1,.29.7,1,1,0,0,1-1,1h-1a.27.27,0,0,0-.26.19c-.18.59-.43,1.29-.74,2.09-.05.11,0,.17.11.17h1.73a.91.91,0,0,1,.68.3.94.94,0,0,1,.29.7,1,1,0,0,1-1,1H54a.19.19,0,0,0-.21.21v.82a.19.19,0,0,0,.21.21h4.21a.9.9,0,0,1,.65.26.93.93,0,0,1,0,1.33.91.91,0,0,1-.65.27H54a.18.18,0,0,0-.21.2v.82a.19.19,0,0,0,.21.21h4.84a1,1,0,0,1,.95.95.94.94,0,0,1-.95,1H54a.19.19,0,0,0-.21.21V48a1.19,1.19,0,0,1-.7,1.16.08.08,0,0,0,0,.07H59a.92.92,0,0,1,.7.3,1,1,0,0,1,.26.72,1,1,0,0,1-.33.72,1,1,0,0,1-.74.28H53.32a31.8,31.8,0,0,1-6.48-.49A6,6,0,0,1,43.53,49c-.09-.11-.19-.12-.28,0a20.71,20.71,0,0,1-2.35,2,1,1,0,0,1-.83.18,1,1,0,0,1-.68-.53,1.26,1.26,0,0,1-.11-.91,1.27,1.27,0,0,1,.53-.78,20.65,20.65,0,0,0,2-1.68.38.38,0,0,0,.11-.3V41.64c0-.13-.06-.2-.18-.2Zm0-9.47a1.21,1.21,0,0,1,1.63.07c.71.75,1.51,1.61,2.39,2.58a1,1,0,0,1,.27.78,1.1,1.1,0,0,1-.36.76,1,1,0,0,1-.8.25,1.17,1.17,0,0,1-.76-.37c-.82-.9-1.62-1.75-2.41-2.56a1,1,0,0,1-.29-.76A1,1,0,0,1,40.18,32Zm10.88,7.26h2.77a.28.28,0,0,0,.28-.19c.17-.43.41-1.12.72-2q0-.21-.12-.21H50.48a.17.17,0,0,0-.12.07s-.06.1,0,.14c.09.35.26,1,.51,2A.23.23,0,0,0,51.06,39.23Z"/><path class="cls-2" d="M63.68,50.15a1,1,0,0,1-.73.17,1,1,0,0,1-.79-1.14c.27-1.5.48-3,.62-4.58a.94.94,0,0,1,.34-.64.93.93,0,0,1,.69-.22.89.89,0,0,1,.67.36.92.92,0,0,1,.23.73c-.14,1.61-.35,3.18-.62,4.7A1,1,0,0,1,63.68,50.15Zm.48-9.78c.06-.08.13-.2.23-.36a2.8,2.8,0,0,1,.23-.37.24.24,0,0,0,0-.32c-.78-1.24-1.46-2.32-2.05-3.23a1.78,1.78,0,0,1,0-2,.77.77,0,0,1,.63-.36.69.69,0,0,1,.63.33l.06.1a.23.23,0,0,0,.06.09s0,0,.09,0a.18.18,0,0,0,.12,0c.41-.85.83-1.77,1.25-2.77a1.17,1.17,0,0,1,.59-.57,1,1,0,0,1,.81,0,1.06,1.06,0,0,1,.55.59,1,1,0,0,1,0,.81c-.6,1.35-1.25,2.67-2,4a.32.32,0,0,0,0,.33l.22.36c.1.16.18.28.22.36s.15.12.21,0c.56-.93,1.2-2.07,1.91-3.44a.92.92,0,0,1,.59-.52,1,1,0,0,1,.8.08,1,1,0,0,1,.45,1.42c-.39.71-.83,1.49-1.31,2.35,0,0,0,0,0,.07s.06,0,.09,0a1.32,1.32,0,0,1,1,.13,1.25,1.25,0,0,1,.62.8c.34,1.32.62,2.49.83,3.51a.85.85,0,0,1-.11.71.94.94,0,0,1-.61.43l-.16,0a.72.72,0,0,1-.59-.1.77.77,0,0,1-.34-.5.16.16,0,0,0-.16-.12l-1.26.1a.19.19,0,0,0-.21.21v7.92a1.11,1.11,0,0,1-.35.84,1.19,1.19,0,0,1-2-.84V42.67c0-.13-.07-.19-.21-.19l-1.76.12a1,1,0,0,1-.73-.26,1,1,0,0,1-.32-.7.93.93,0,0,1,.27-.73,1,1,0,0,1,.71-.33l.62,0A.38.38,0,0,0,64.16,40.37Zm2.51-.14a.06.06,0,0,0,0,.09.12.12,0,0,0,.1,0l1.79-.12c.14,0,.2-.07.17-.21q-.24-.93-.54-2c0-.14-.1-.16-.16-.07C67.74,38.49,67.29,39.23,66.67,40.23Zm3,9.27a1,1,0,0,1-1-.86c-.11-1.53-.24-2.86-.4-4a1,1,0,0,1,.19-.7A.83.83,0,0,1,69,43.6a1,1,0,0,1,.71.18.87.87,0,0,1,.36.61c.11.79.25,2.14.42,4a.94.94,0,0,1-.22.73A.9.9,0,0,1,69.62,49.5ZM81.94,31.39a1.21,1.21,0,0,1,.92.4,1.27,1.27,0,0,1,.39.93,33.34,33.34,0,0,1-.33,5.13A4.09,4.09,0,0,1,82.08,40a2.38,2.38,0,0,1-1.67.5l-2.56-.09a1.13,1.13,0,0,1-1.07-1.07,1,1,0,0,1,1-1c.75,0,1.33.07,1.75.07a.87.87,0,0,0,.71-.3,3,3,0,0,0,.39-1.32,23.78,23.78,0,0,0,.15-3.13q0-.21-.18-.21H78a.24.24,0,0,0-.24.19A11,11,0,0,1,76.18,38a9.86,9.86,0,0,1-3.07,3,1.15,1.15,0,0,1-.89.1,1.2,1.2,0,0,1-.72-.52,1,1,0,0,1-.12-.8,1.11,1.11,0,0,1,.47-.69,8.15,8.15,0,0,0,3.54-5.37c0-.12,0-.19-.14-.19H72.11a1.06,1.06,0,0,1-.76-.3,1.05,1.05,0,0,1,0-1.49,1.06,1.06,0,0,1,.76-.3Zm-9,20.11h-.23a1.16,1.16,0,0,1-.85-.35,1.11,1.11,0,0,1-.36-.83V43.23a1.37,1.37,0,0,1,1.33-1.33h8.58a1.35,1.35,0,0,1,1.32,1.33v7A1.23,1.23,0,0,1,81.5,51.5h-.25a.91.91,0,0,1-.68-.28.93.93,0,0,1-.28-.67.12.12,0,0,0-.14-.14H74a.12.12,0,0,0-.14.14.89.89,0,0,1-.28.67A.91.91,0,0,1,72.94,51.5Zm1-7.34v4.07a.18.18,0,0,0,.21.2h6c.12,0,.18-.07.18-.2V44.16q0-.21-.18-.21h-6A.19.19,0,0,0,73.9,44.16Z"/><path class="cls-2" d="M87.2,38.78a1.12,1.12,0,0,1-1.56-.46,1.13,1.13,0,0,1-.08-.9,1.27,1.27,0,0,1,.57-.7,48.19,48.19,0,0,0,7.44-5.21,3.39,3.39,0,0,1,2.3-.86h.47a3.41,3.41,0,0,1,2.3.86,48.19,48.19,0,0,0,7.44,5.21,1.27,1.27,0,0,1,.57.7,1.13,1.13,0,0,1-.08.9,1.2,1.2,0,0,1-.69.56,1.07,1.07,0,0,1-.87-.1,45.48,45.48,0,0,1-8.77-6.39.26.26,0,0,0-.3,0A45.67,45.67,0,0,1,87.2,38.78Zm3.44-.2a1.23,1.23,0,0,1,1.26-1.26,1.19,1.19,0,0,1,.87.36,1.22,1.22,0,0,1,.36.9v.9a20.53,20.53,0,0,1-1,7.31,8.67,8.67,0,0,1-3.59,4.09,1.25,1.25,0,0,1-1,.16,1.34,1.34,0,0,1-.81-.54,1,1,0,0,1-.17-.88,1.08,1.08,0,0,1,.52-.74,6.7,6.7,0,0,0,2.75-3.27,18.28,18.28,0,0,0,.76-6.13Zm8.77,0a1.23,1.23,0,0,1,.38-.9,1.28,1.28,0,0,1,.92-.38,1.19,1.19,0,0,1,.88.37,1.23,1.23,0,0,1,.37.91V50a1.23,1.23,0,0,1-.37.91,1.19,1.19,0,0,1-.88.37,1.28,1.28,0,0,1-.92-.38,1.23,1.23,0,0,1-.38-.9Z"/><path class="cls-2" d="M110.5,35.41a1.11,1.11,0,0,1-.78-1.89,1,1,0,0,1,.75-.32c5.65,0,11.23-.17,16.77-.41a1.11,1.11,0,0,1,1.16,1,1.13,1.13,0,0,1-.28.82,1.2,1.2,0,0,1-.76.41c-3.54.47-6.18,1.4-7.93,2.81A6.31,6.31,0,0,0,116.8,43a5.24,5.24,0,0,0,1.68,4.14A6.55,6.55,0,0,0,123,48.6a15.14,15.14,0,0,0,1.77-.12,1.09,1.09,0,0,1,.83.25,1,1,0,0,1,.42.73,1.19,1.19,0,0,1-.23.85,1,1,0,0,1-.74.43,17,17,0,0,1-2.17.14,9.22,9.22,0,0,1-6.31-2.06,7.1,7.1,0,0,1-2.34-5.62,7.55,7.55,0,0,1,1.5-4.61,11,11,0,0,1,4.36-3.36,0,0,0,0,0,0,0s0,0,0,0Q115.41,35.36,110.5,35.41Zm13.25,2.91a1.09,1.09,0,0,1,1.47.44c.23.42.58,1.06,1,1.93a1,1,0,0,1,.08.79.91.91,0,0,1-.52.58,1.12,1.12,0,0,1-1.44-.44l-.54-.95q-.34-.63-.51-1a1,1,0,0,1-.08-.79A.94.94,0,0,1,123.75,38.32Zm4.95-.4c.25.44.61,1.09,1.07,2a.93.93,0,0,1,.07.8,1,1,0,0,1-.53.62,1.08,1.08,0,0,1-.83,0,1.12,1.12,0,0,1-.64-.55c-.11-.21-.28-.53-.53-1s-.43-.73-.54-.93a1,1,0,0,1-.08-.8,1,1,0,0,1,.53-.62,1.06,1.06,0,0,1,.82-.08A1.11,1.11,0,0,1,128.7,37.92Z"/><path class="cls-2" d="M19.13,89.63a1.85,1.85,0,1,1,0-3.69h2.33c.25,0,.37-.1.37-.32V81a2,2,0,0,1,.62-1.48,2.09,2.09,0,0,1,2.95,0A2,2,0,0,1,26,81v4.64a.28.28,0,0,0,.32.32h1.19a1.85,1.85,0,1,1,0,3.69H26.34c-.21,0-.32.13-.32.38v7.46c0,.22.11.3.32.25l.48-.17.47-.2a1.56,1.56,0,0,1,1.06,0,.12.12,0,0,0,.15,0s.05-.08,0-.1a2.77,2.77,0,0,1-.17-.74V93.2a2.29,2.29,0,0,1,.7-1.64,2.26,2.26,0,0,1,1.64-.69h1.48c.24,0,.31-.11.2-.33-.3-.68-.65-1.45-1.06-2.3a1.64,1.64,0,0,1,0-1.42,1.68,1.68,0,0,1,1-1,2.11,2.11,0,0,1,1.6.06,2.3,2.3,0,0,1,1.15,1.13c.46,1,1,2.16,1.56,3.53a.45.45,0,0,0,.45.29h3.2c.19,0,.26-.1.2-.29-.16-.44-.56-1.34-1.19-2.71a1.74,1.74,0,0,1,0-1.43,1.69,1.69,0,0,1,1-1,2.31,2.31,0,0,1,1.58.08A2.22,2.22,0,0,1,43,86.64c.9,2,1.47,3.31,1.72,3.94a.45.45,0,0,0,.45.29H47a.5.5,0,0,0,.5-.29q1-2.58,1.68-4.68a2,2,0,0,1,1-1.23,2.24,2.24,0,0,1,1.56-.24,2,2,0,0,1,1.25.9,1.7,1.7,0,0,1,.19,1.47c-.36,1.21-.8,2.45-1.32,3.74q-.08.33.21.33h.69a2.36,2.36,0,0,1,2.34,2.33v3.24A2.15,2.15,0,0,1,54.4,98a2.17,2.17,0,0,1-1.6.66h-.13a.18.18,0,0,0-.2.2,4.43,4.43,0,0,1-.74,2.51,28.92,28.92,0,0,1-6.27,6.6c-.22.14-.22.26,0,.37a37.66,37.66,0,0,0,8.36,2.91,1.7,1.7,0,0,1,1.13.8,1.64,1.64,0,0,1,.18,1.37,2.11,2.11,0,0,1-1,1.26,2,2,0,0,1-1.5.26,40.46,40.46,0,0,1-11.07-4.1.71.71,0,0,0-.57,0A43.83,43.83,0,0,1,30,114.9a2,2,0,0,1-1.49-.26,2.17,2.17,0,0,1-1-1.22,1.51,1.51,0,0,1,.17-1.37,1.77,1.77,0,0,1,1.15-.8,37.33,37.33,0,0,0,8.44-2.83.24.24,0,0,0,.08-.2c0-.09,0-.14-.08-.17a29,29,0,0,1-4-3.48,1.75,1.75,0,0,1-.47-1.46,1.73,1.73,0,0,1,.8-1.29,2.31,2.31,0,0,1,1.64-.37,2.44,2.44,0,0,1,1.52.78,28.93,28.93,0,0,0,4.39,3.65.47.47,0,0,0,.57,0,24.37,24.37,0,0,0,5.7-5.38c.14-.19.1-.28-.12-.28H32.17a1.29,1.29,0,0,1-1-.41,1.33,1.33,0,0,1-.39-1c0-.13,0-.2-.16-.2h-.12a2.11,2.11,0,0,1-1.15-.29c-.11-.05-.17,0-.17.12v.13a2.61,2.61,0,0,1-.43,1.62,2.66,2.66,0,0,1-1.29,1l-.51.19-.64.22a.46.46,0,0,0-.32.46v7.3c0,2.7-.22,4.37-.64,5s-1.55.94-3.38.94c-.93,0-1.76,0-2.47-.08a1.8,1.8,0,0,1-1.25-.59,2.1,2.1,0,0,1-.55-1.34,1.52,1.52,0,0,1,.49-1.21,1.49,1.49,0,0,1,1.23-.43c.39,0,.82,0,1.31,0s.83-.09.93-.26a6.61,6.61,0,0,0,.14-1.87v-6.23c0-.22-.12-.3-.37-.25l-2,.49a1.73,1.73,0,0,1-1.39-.26,1.64,1.64,0,0,1-.7-1.21,2.16,2.16,0,0,1,.43-1.52,2.11,2.11,0,0,1,1.34-.86c.49-.11,1.25-.3,2.29-.58a.41.41,0,0,0,.37-.45V90a.33.33,0,0,0-.37-.38ZM51.49,79.42a1.85,1.85,0,0,1,1.43.25,1.76,1.76,0,0,1,.82,1.19,1.87,1.87,0,0,1-.24,1.43,1.77,1.77,0,0,1-1.19.82,112.36,112.36,0,0,1-21,1.81A2,2,0,0,1,30,84.38a1.81,1.81,0,0,1-.63-1.31,1.55,1.55,0,0,1,.43-1.29A1.63,1.63,0,0,1,31,81.23,113.42,113.42,0,0,0,51.49,79.42Zm-19,15.22v1.72c0,.25.1.37.32.37H50.46a.32.32,0,0,0,.37-.37V94.64a.32.32,0,0,0-.37-.37H32.82C32.6,94.27,32.5,94.39,32.5,94.64Z"/><path class="cls-2" d="M61.9,114.66a2.21,2.21,0,0,1-1.6,0,2.44,2.44,0,0,1-1.23-1.07A1.46,1.46,0,0,1,59,112.2a1.55,1.55,0,0,1,1-.91,64.85,64.85,0,0,0,12-4.43.14.14,0,0,0,.05-.1s0-.06-.09-.06H61.53a1.54,1.54,0,0,1-1.18-.52,1.67,1.67,0,0,1-.5-1.2,1.71,1.71,0,0,1,1.68-1.69H74.66a.33.33,0,0,0,.37-.37v-1.55c0-.22-.13-.33-.37-.33H63.3a1.55,1.55,0,0,1-1.13-.47,1.56,1.56,0,0,1-.47-1.13,1.6,1.6,0,0,1,1.6-1.6H74.66c.24,0,.37-.11.37-.33V96a.33.33,0,0,0-.37-.37H61.9a1.62,1.62,0,0,1-1.64-1.64A1.62,1.62,0,0,1,61.9,92.3h6.61c.24,0,.31-.11.2-.33-.35-.9-.91-2.25-1.68-4.06a.48.48,0,0,0-.49-.32H61.17a1.76,1.76,0,0,1-1.73-1.73A1.74,1.74,0,0,1,60,84.63a1.67,1.67,0,0,1,1.22-.53h2.66A.23.23,0,0,0,64,84a.15.15,0,0,0,0-.19c-.58-1-.89-1.56-1-1.64a1.52,1.52,0,0,1-.16-1.37,1.6,1.6,0,0,1,.94-1,2.21,2.21,0,0,1,1.6-.06,2.14,2.14,0,0,1,1.23,1c.52.82,1.11,1.85,1.77,3.08a.51.51,0,0,0,.53.33h2.13a.29.29,0,0,0,.33-.33v-3.2a2,2,0,0,1,2-2,2,2,0,0,1,2,2v3.2c0,.22.12.33.37.33h3c.25,0,.37-.11.37-.33v-3.2a2,2,0,0,1,2-2,1.88,1.88,0,0,1,1.4.6,2,2,0,0,1,.57,1.41v3.2c0,.22.12.33.37.33h2.34a.57.57,0,0,0,.53-.29c.3-.49.86-1.49,1.68-3a2.15,2.15,0,0,1,1.15-1,2.21,2.21,0,0,1,1.56-.06,1.62,1.62,0,0,1,1,.94,1.57,1.57,0,0,1-.08,1.4c-.11.22-.44.81-1,1.76a.14.14,0,0,0,0,.19.21.21,0,0,0,.18.1H93.4a1.63,1.63,0,0,1,1.21.53,1.71,1.71,0,0,1,.52,1.23,1.78,1.78,0,0,1-1.73,1.73H88.2a.54.54,0,0,0-.5.36c-.63,1.62-1.21,3-1.76,4.1-.11.17,0,.25.2.25h6.53a1.62,1.62,0,0,1,1.64,1.64,1.62,1.62,0,0,1-1.64,1.64H79.91a.33.33,0,0,0-.37.37v1.56c0,.22.12.33.37.33H91.27a1.56,1.56,0,0,1,1.13.47,1.55,1.55,0,0,1,.47,1.13,1.6,1.6,0,0,1-1.6,1.6H79.91c-.25,0-.37.11-.37.33v1.55a.32.32,0,0,0,.37.37H93A1.69,1.69,0,0,1,94.71,105a1.66,1.66,0,0,1-.49,1.2,1.54,1.54,0,0,1-1.18.52H82.54a.13.13,0,0,0-.09.12,62.71,62.71,0,0,0,12.1,4.47,1.55,1.55,0,0,1,1,.91,1.46,1.46,0,0,1-.06,1.35,2.31,2.31,0,0,1-2.83,1.11A57.6,57.6,0,0,1,79.79,109c-.17-.11-.25,0-.25.17v4.39a2.17,2.17,0,0,1-.68,1.6,2.23,2.23,0,0,1-3.15,0,2.17,2.17,0,0,1-.68-1.6v-4.39a.2.2,0,0,0-.13-.19.16.16,0,0,0-.2,0A57.4,57.4,0,0,1,61.9,114.66ZM73.63,92.3h7.26a.62.62,0,0,0,.54-.33,33.58,33.58,0,0,0,1.88-4.06c.06-.21,0-.32-.24-.32H71.75a.21.21,0,0,0-.19.12.29.29,0,0,0,0,.24c.77,1.81,1.32,3.16,1.64,4.06A.45.45,0,0,0,73.63,92.3Z"/><path class="cls-2" d="M108.76,115.21a2,2,0,0,1-1.45.59,2,2,0,0,1-2-2v-10.7c0-.06,0-.08,0-.08a.09.09,0,0,0-.08,0,37.36,37.36,0,0,1-3.08,6.4,1.35,1.35,0,0,1-1.25.61,1.31,1.31,0,0,1-1.17-.74,3.46,3.46,0,0,1,.2-3.85,38.88,38.88,0,0,0,4.64-9.6c0-.22,0-.33-.25-.33h-3a1.83,1.83,0,0,1-1.81-1.8,1.64,1.64,0,0,1,.54-1.25,1.74,1.74,0,0,1,1.27-.52h3.69c.22,0,.33-.12.33-.37V80.94a2,2,0,0,1,2-2,2,2,0,0,1,2,2V91.56a.32.32,0,0,0,.37.37h3.07a1.72,1.72,0,0,1,1.27.52,1.64,1.64,0,0,1,.54,1.25,1.83,1.83,0,0,1-1.81,1.8H111c-.25,0-.31.11-.2.33l3.32,6.6a2.35,2.35,0,0,1,.2,1.54,2.21,2.21,0,0,1-.82,1.33,1.36,1.36,0,0,1-1.25.27,1.5,1.5,0,0,1-1-.84l-.88-1.93c-.4-.85-.69-1.49-.89-1.93,0-.05-.06-.08-.1-.08s-.06,0-.06.08v12.88A2,2,0,0,1,108.76,115.21Zm-7.81-34a1.93,1.93,0,0,1,1.42.22,1.69,1.69,0,0,1,.84,1.13c.32,1.37.75,3.31,1.27,5.82a1.82,1.82,0,0,1-.25,1.4,1.73,1.73,0,0,1-1.15.82,1.58,1.58,0,0,1-1.31-.25,1.77,1.77,0,0,1-.78-1.11c-.35-1.8-.82-3.75-1.39-5.86A1.72,1.72,0,0,1,99.82,82,1.86,1.86,0,0,1,101,81.19Zm10.7,1.15a1.89,1.89,0,0,1,2.1-1.56,1.6,1.6,0,0,1,1.21.69,1.78,1.78,0,0,1,.31,1.36c-.5,2.51-1,4.69-1.52,6.52a1.75,1.75,0,0,1-.86,1.09,1.83,1.83,0,0,1-1.4.14,1.68,1.68,0,0,1-1-.86,1.75,1.75,0,0,1-.15-1.36A49.07,49.07,0,0,0,111.65,82.34Zm24.12,19.35a1.61,1.61,0,0,1,1.38.31,1.77,1.77,0,0,1,.67,1.25,1.93,1.93,0,0,1-.39,1.42,2,2,0,0,1-1.29.8l-1.8.37a.39.39,0,0,0-.37.41v7.42a2.07,2.07,0,0,1-.62,1.52,2.19,2.19,0,0,1-3,0,2.07,2.07,0,0,1-.62-1.52v-6.6a.31.31,0,0,0-.12-.23.24.24,0,0,0-.25-.06l-13.53,2.5a1.69,1.69,0,0,1-1.4-.29,1.53,1.53,0,0,1-.65-1.23,2.09,2.09,0,0,1,1.68-2.25l13.9-2.63a.39.39,0,0,0,.37-.41V81a2.09,2.09,0,0,1,.62-1.52,2.19,2.19,0,0,1,3,0A2.09,2.09,0,0,1,134,81v20.67a.31.31,0,0,0,.12.23.24.24,0,0,0,.25.06Zm-19.62-8.28a1.76,1.76,0,0,1,.59-1.4,2.26,2.26,0,0,1,3,0c1.94,1.84,3.71,3.61,5.33,5.34a1.93,1.93,0,0,1,.53,1.47,2,2,0,0,1-.65,1.44,2,2,0,0,1-1.44.55,1.87,1.87,0,0,1-1.39-.63c-1.81-1.94-3.59-3.74-5.34-5.38A1.87,1.87,0,0,1,116.15,93.41Zm8.43-3.49q-2.39-2.53-4.6-4.67a2,2,0,0,1-.63-1.4,1.69,1.69,0,0,1,.59-1.35,2.17,2.17,0,0,1,1.48-.6,2,2,0,0,1,1.47.56q2.06,1.89,4.64,4.63a2,2,0,0,1,.53,1.48,2.06,2.06,0,0,1-.65,1.44,2,2,0,0,1-1.44.55A1.88,1.88,0,0,1,124.58,89.92Z"/><path class="cls-3" d="M151.4,93.25a1.51,1.51,0,0,1-1.39.28,1.59,1.59,0,0,1-1.11-.9,2.53,2.53,0,0,1-.17-1.68,2.45,2.45,0,0,1,.91-1.44l7.71-5.94a6.29,6.29,0,0,1,4-1.4,2.17,2.17,0,0,1,1.57.66,2.12,2.12,0,0,1,.68,1.6v25.43a2.08,2.08,0,0,1-.68,1.59,2.26,2.26,0,0,1-3.83-1.59V87.42H159Z"/><path class="cls-4" d="M185.15,90.78a1.85,1.85,0,1,1,0-3.69h5.46c.25,0,.38-.09.41-.29.6-2.73,1-4.79,1.27-6.19a2.17,2.17,0,0,1,2.34-1.72,1.75,1.75,0,0,1,1.31.74,1.82,1.82,0,0,1,.37,1.43q-.65,3.78-1.07,5.66c-.05.25,0,.37.25.37h5.81a12.3,12.3,0,0,1,2.21.23,10.66,10.66,0,0,1,1.68.41,2.88,2.88,0,0,1,1.07.9,3.64,3.64,0,0,1,.74,1.29c.09.39.2,1.07.32,2a20.86,20.86,0,0,1,.19,2.71v3.69q0,7.75-1.87,11.57c-1.24,2.54-2.88,3.81-4.9,3.81a21.4,21.4,0,0,1-6.6-1.35,2,2,0,0,1-1.15-1.05,1.91,1.91,0,0,1-.08-1.57,1.81,1.81,0,0,1,1-1.11,1.91,1.91,0,0,1,1.52,0,14.81,14.81,0,0,0,4.47,1,1.55,1.55,0,0,0,1.15-.7,7,7,0,0,0,1.07-2.09,19.51,19.51,0,0,0,.78-3.75,45.08,45.08,0,0,0,.28-5.35V95.42c0-.46,0-1-.08-1.68s-.09-1.08-.12-1.27a2.43,2.43,0,0,0-.33-.78c-.19-.33-.34-.52-.45-.56a7.46,7.46,0,0,0-.76-.2,4.25,4.25,0,0,0-1-.15h-5.79a.41.41,0,0,0-.45.33,150.44,150.44,0,0,1-6.85,21.09,2,2,0,0,1-1.13,1.1,2.11,2.11,0,0,1-1.58,0,1.75,1.75,0,0,1-1.08-1.06,2,2,0,0,1,0-1.56A154.61,154.61,0,0,0,190,91.11q.09-.33-.24-.33Zm29.95,12.64A164.1,164.1,0,0,0,209.52,87a1.84,1.84,0,0,1,0-1.54,2,2,0,0,1,1.13-1.05,2.08,2.08,0,0,1,1.62.09,2,2,0,0,1,1.09,1.15,159.63,159.63,0,0,1,5.7,16.85,2.12,2.12,0,0,1-.21,1.56,1.85,1.85,0,0,1-1.23,1,2,2,0,0,1-1.58-.27A2.13,2.13,0,0,1,215.1,103.42Z"/><path class="cls-4" d="M249.55,111.78a3.83,3.83,0,0,0,1.89-.26c.19-.18.28-.8.28-1.87v-6.11a.32.32,0,0,0-.37-.37H232.53c-.22,0-.36.14-.41.41a21.71,21.71,0,0,1-4.88,10.83,2.06,2.06,0,0,1-1.5.76,2.38,2.38,0,0,1-1.66-.51,1.9,1.9,0,0,1-.78-1.36,2.14,2.14,0,0,1,.45-1.52,17.54,17.54,0,0,0,3.49-6.76,41.24,41.24,0,0,0,1-10.13V82.05a2.39,2.39,0,0,1,2.34-2.34h23.21a2.37,2.37,0,0,1,2.34,2.34v27.6c0,2.71-.3,4.37-.92,5s-2.19.94-4.74.94c-1,0-2.58,0-4.88-.12a2,2,0,0,1-1.35-.6,2,2,0,0,1-.62-1.37,1.78,1.78,0,0,1,.49-1.34,1.66,1.66,0,0,1,1.32-.51Q248.61,111.78,249.55,111.78Zm1.8-12.18a.32.32,0,0,0,.37-.37V93.41a.32.32,0,0,0-.37-.37H233c-.22,0-.33.12-.33.37v3.2c0,.66,0,1.53-.08,2.62,0,.25.11.37.33.37Zm-18.7-15.83V89.1c0,.25.11.37.33.37h18.37a.32.32,0,0,0,.37-.37V83.77a.32.32,0,0,0-.37-.37H233C232.76,83.4,232.65,83.52,232.65,83.77Z"/><path class="cls-4" d="M267.47,96.16a2.24,2.24,0,0,1-1.58.59,2.16,2.16,0,0,1-1.53-.68,1.9,1.9,0,0,1-.58-1.51,2,2,0,0,1,.7-1.48,46.77,46.77,0,0,0,9.23-11.69A2.49,2.49,0,0,1,275,80.24a2.43,2.43,0,0,1,1.68,0,1.86,1.86,0,0,1,1.15,1.09,1.71,1.71,0,0,1-.08,1.54,47.84,47.84,0,0,1-6,8.86c-.14.13-.1.2.13.2h20.91c.19,0,.23-.08.12-.25A48.18,48.18,0,0,1,287,82.83a1.71,1.71,0,0,1-.08-1.54,1.84,1.84,0,0,1,1.14-1.09,2.45,2.45,0,0,1,1.69,0A2.53,2.53,0,0,1,291,81.39a46.77,46.77,0,0,0,9.23,11.69,2,2,0,0,1,.69,1.48,1.89,1.89,0,0,1-.57,1.51,2.17,2.17,0,0,1-1.54.68,2.26,2.26,0,0,1-1.58-.59c-.41-.39-1-1-1.84-1.81-.14-.14-.21-.09-.21.12v1.65q0,4.42-.12,7.42a46.31,46.31,0,0,1-.47,5.21,18,18,0,0,1-.81,3.42,4.36,4.36,0,0,1-3.17,2.81,12.32,12.32,0,0,1-2.53.21c-.84,0-2.43-.07-4.75-.21a1.94,1.94,0,0,1-1.38-.63,2.19,2.19,0,0,1-.59-1.42,1.6,1.6,0,0,1,.53-1.31,1.81,1.81,0,0,1,1.4-.49c1.72.08,3.13.12,4.22.12a2.22,2.22,0,0,0,1.87-.82,8.84,8.84,0,0,0,1-3.73,74.84,74.84,0,0,0,.37-8.74V96c0-.21-.12-.32-.37-.32h-9.64c-.24,0-.37.11-.37.32a29.13,29.13,0,0,1-3,11.18,21.2,21.2,0,0,1-7,7.53,2.2,2.2,0,0,1-1.71.35,2.44,2.44,0,0,1-1.49-.93,1.91,1.91,0,0,1-.4-1.53,1.85,1.85,0,0,1,.89-1.3,17.34,17.34,0,0,0,5.82-6.13A24.08,24.08,0,0,0,276.05,96a.29.29,0,0,0-.33-.32h-2.83a2.39,2.39,0,0,1-2.34-2.34.12.12,0,0,0-.08-.12c-.06,0-.1,0-.12,0C269.74,93.94,268.79,94.9,267.47,96.16Z"/><path class="cls-4" d="M306.6,94.8a1.8,1.8,0,0,1-1.33-.55,1.86,1.86,0,0,1-.55-1.37,1.83,1.83,0,0,1,.55-1.34A1.8,1.8,0,0,1,306.6,91h2.67a.32.32,0,0,0,.37-.37V88.45a.19.19,0,0,0-.1-.15c-.07,0-.12,0-.15,0l-.24.25a2.24,2.24,0,0,1-1.48.61,2.29,2.29,0,0,1-1.56-.49,1.54,1.54,0,0,1-.66-1.21,1.65,1.65,0,0,1,.5-1.29,45.8,45.8,0,0,0,5.94-7,3.08,3.08,0,0,1,1.4-1.09A2.55,2.55,0,0,1,315,78a1.4,1.4,0,0,1,1.07.9,1.51,1.51,0,0,1-.12,1.4,2.06,2.06,0,0,0-.29.45,5.2,5.2,0,0,1-.29.45c-.11.16-.06.24.16.24H338.6a1.76,1.76,0,0,1,1.27.53,1.78,1.78,0,0,1,.53,1.28,1.76,1.76,0,0,1-.53,1.27,1.72,1.72,0,0,1-1.27.53h-1.11a.33.33,0,0,0-.37.37v5.21a.32.32,0,0,0,.37.37h2.66A1.88,1.88,0,0,1,342,92.88a1.86,1.86,0,0,1-.55,1.37,1.83,1.83,0,0,1-1.34.55h-2.66c-.25,0-.37.11-.37.33v5.66a.32.32,0,0,0,.37.37h2a1.74,1.74,0,0,1,1.23.51,1.66,1.66,0,0,1,.53,1.21,1.83,1.83,0,0,1-1.76,1.77H307.3a1.69,1.69,0,0,1-1.23-.54,1.65,1.65,0,0,1-.53-1.23,1.62,1.62,0,0,1,.53-1.21,1.74,1.74,0,0,1,1.23-.51h2a.32.32,0,0,0,.37-.37V95.13c0-.22-.12-.33-.37-.33Zm3,12.31a2.16,2.16,0,0,1,1.25-1,2,2,0,0,1,1.58.17,2,2,0,0,1,.82,2.7,55.06,55.06,0,0,1-3.49,5.34,2.06,2.06,0,0,1-1.4.82,2.34,2.34,0,0,1-1.59-.33,1.71,1.71,0,0,1-.85-1.25,1.86,1.86,0,0,1,.36-1.5C307.22,110.73,308.32,109.08,309.56,107.11ZM314,85.41v5.21a.32.32,0,0,0,.36.37h2.75a.32.32,0,0,0,.37-.37V85.41a.33.33,0,0,0-.37-.37h-2.75A.33.33,0,0,0,314,85.41Zm0,9.72v5.66a.32.32,0,0,0,.36.37h2.75a.32.32,0,0,0,.37-.37V95.13c0-.22-.12-.33-.37-.33h-2.75Q314,94.8,314,95.13Zm4.34,11.4a2.16,2.16,0,0,1,1.62.4,2.09,2.09,0,0,1,.88,1.37c.28,1.45.54,3.07.78,4.88a1.94,1.94,0,0,1-.43,1.56,2.15,2.15,0,0,1-1.41.82,1.91,1.91,0,0,1-1.54-.43,2.16,2.16,0,0,1-.8-1.42q-.12-1-.78-4.8a2,2,0,0,1,1.68-2.38Zm3.24-21.12v5.21a.33.33,0,0,0,.37.37h3a.32.32,0,0,0,.37-.37V85.41a.33.33,0,0,0-.37-.37h-3A.33.33,0,0,0,321.53,85.41Zm0,9.72v5.66a.33.33,0,0,0,.37.37h3a.32.32,0,0,0,.37-.37V95.13c0-.22-.12-.33-.37-.33h-3C321.66,94.8,321.53,94.91,321.53,95.13Zm4.88,11.2a2.16,2.16,0,0,1,1.64.14,2.27,2.27,0,0,1,1.11,1.21c.52,1.29,1.15,3,1.89,5.09a1.77,1.77,0,0,1-.12,1.52,1.91,1.91,0,0,1-1.24.94,2.23,2.23,0,0,1-1.58-.18,2.1,2.1,0,0,1-1-1.22q-.94-2.74-1.89-5.08a1.86,1.86,0,0,1,.06-1.5A1.69,1.69,0,0,1,326.41,106.33Zm2.92-20.92v5.21a.32.32,0,0,0,.36.37h2.79c.22,0,.33-.12.33-.37V85.41c0-.24-.11-.37-.33-.37h-2.79A.33.33,0,0,0,329.33,85.41Zm0,9.72v5.66a.32.32,0,0,0,.36.37h2.79c.22,0,.33-.12.33-.37V95.13a.29.29,0,0,0-.33-.33h-2.79Q329.33,94.8,329.33,95.13Zm5.08,11a2.22,2.22,0,0,1,1.58-.22,2.08,2.08,0,0,1,1.33.88c1.43,2.08,2.57,3.83,3.45,5.25a1.87,1.87,0,0,1,.18,1.5,2,2,0,0,1-.92,1.21,2,2,0,0,1-1.54.18,2.15,2.15,0,0,1-1.25-.92c-.68-1.12-1.82-2.86-3.4-5.21a1.83,1.83,0,0,1-.29-1.46A1.79,1.79,0,0,1,334.41,106.12Z"/><path class="cls-4" d="M354.86,115.21a2,2,0,0,1-1.46.59,2,2,0,0,1-2-2v-10.7c0-.06,0-.08,0-.08a.1.1,0,0,0-.08,0,37.36,37.36,0,0,1-3.08,6.4,1.35,1.35,0,0,1-1.25.61,1.32,1.32,0,0,1-1.17-.74,3.46,3.46,0,0,1,.21-3.85,38.84,38.84,0,0,0,4.63-9.6c.06-.22,0-.33-.25-.33h-3a1.81,1.81,0,0,1-1.8-1.8,1.67,1.67,0,0,1,.53-1.25,1.75,1.75,0,0,1,1.27-.52H351c.22,0,.33-.12.33-.37V80.94a2.06,2.06,0,0,1,3.51-1.46,2,2,0,0,1,.59,1.46V91.56a.33.33,0,0,0,.37.37h3.08a1.75,1.75,0,0,1,1.27.52,1.63,1.63,0,0,1,.53,1.25,1.72,1.72,0,0,1-.53,1.27,1.76,1.76,0,0,1-1.27.53h-1.77c-.24,0-.31.11-.2.33q1.11,2.17,3.32,6.6a2.29,2.29,0,0,1,.21,1.54,2.26,2.26,0,0,1-.82,1.33,1.37,1.37,0,0,1-1.25.27,1.54,1.54,0,0,1-1-.84c-.19-.44-.49-1.08-.88-1.93s-.69-1.49-.88-1.93c0-.05-.06-.08-.1-.08s-.07,0-.07.08v12.88A2,2,0,0,1,354.86,115.21Zm-7.82-34a1.91,1.91,0,0,1,1.42.22,1.69,1.69,0,0,1,.84,1.13q.49,2.05,1.27,5.82a1.78,1.78,0,0,1-.25,1.4,1.73,1.73,0,0,1-1.14.82,1.61,1.61,0,0,1-1.32-.25,1.77,1.77,0,0,1-.78-1.11q-.52-2.7-1.39-5.86a1.72,1.72,0,0,1,.23-1.35A1.84,1.84,0,0,1,347,81.19Zm10.71,1.15a1.78,1.78,0,0,1,.72-1.19,1.83,1.83,0,0,1,1.37-.37,1.58,1.58,0,0,1,1.21.69,1.78,1.78,0,0,1,.31,1.36c-.49,2.51-1,4.69-1.52,6.52a1.72,1.72,0,0,1-.86,1.09,1.83,1.83,0,0,1-1.4.14,1.68,1.68,0,0,1-1-.86,1.75,1.75,0,0,1-.14-1.36A53.06,53.06,0,0,0,357.75,82.34Zm24.12,19.35a1.59,1.59,0,0,1,1.37.31,1.79,1.79,0,0,1,.68,1.25,2,2,0,0,1-.39,1.42,2.09,2.09,0,0,1-1.3.8l-1.8.37a.4.4,0,0,0-.37.41v7.42a2.13,2.13,0,1,1-4.26,0v-6.6a.29.29,0,0,0-.13-.23.23.23,0,0,0-.24-.06l-13.54,2.5a1.66,1.66,0,0,1-1.39-.29,1.56,1.56,0,0,1-.66-1.23,2.09,2.09,0,0,1,1.68-2.25l13.91-2.63a.4.4,0,0,0,.37-.41V81a2.13,2.13,0,1,1,4.26,0v20.67a.29.29,0,0,0,.13.23.23.23,0,0,0,.24.06Zm-19.63-8.28a1.77,1.77,0,0,1,.6-1.4,2.1,2.1,0,0,1,1.49-.57,2.13,2.13,0,0,1,1.5.57c1.94,1.84,3.72,3.61,5.33,5.34a1.93,1.93,0,0,1,.53,1.47,2,2,0,0,1-.65,1.44,2,2,0,0,1-1.44.55,1.88,1.88,0,0,1-1.39-.63c-1.81-1.94-3.58-3.74-5.33-5.38A1.84,1.84,0,0,1,362.24,93.41Zm8.43-3.49q-2.39-2.53-4.59-4.67a2,2,0,0,1-.64-1.4,1.73,1.73,0,0,1,.6-1.35,2.14,2.14,0,0,1,1.47-.6,2,2,0,0,1,1.48.56q2.06,1.89,4.63,4.63a2,2,0,0,1,.54,1.48A2.07,2.07,0,0,1,373.5,90a2,2,0,0,1-1.44.55A1.89,1.89,0,0,1,370.67,89.92Z"/><path class="cls-3" d="M406.86,102.9a2,2,0,0,1-1.45.6,2,2,0,0,1-1.46-.6,2.1,2.1,0,0,1-.63-1.45l-.49-16.94a2.12,2.12,0,0,1,.63-1.64,2.16,2.16,0,0,1,1.62-.7h.66a2.16,2.16,0,0,1,1.62.7,2.12,2.12,0,0,1,.63,1.64l-.49,16.94A2.11,2.11,0,0,1,406.86,102.9Zm-1.33,3.88a2.39,2.39,0,0,1,2.34,2.34v.66a2.39,2.39,0,0,1-2.34,2.33h-.24a2.39,2.39,0,0,1-2.34-2.33v-.66a2.39,2.39,0,0,1,2.34-2.34Z"/><rect class="cls-5" x="293.11" y="150.87" width="110.04" height="27.74" rx="7.42"/><path class="cls-2" d="M308.88,162.55a.42.42,0,0,1-.32-.15.55.55,0,0,1-.13-.38.54.54,0,0,1,.13-.37.42.42,0,0,1,.32-.15h2.74a.43.43,0,0,1,.33.15.54.54,0,0,1,.13.37.55.55,0,0,1-.13.38.43.43,0,0,1-.33.15Zm.27-1.69a.39.39,0,0,1-.31-.15.52.52,0,0,1-.13-.36.52.52,0,0,1,.13-.37.39.39,0,0,1,.31-.15h2.21a.39.39,0,0,1,.31.15.52.52,0,0,1,.13.37.52.52,0,0,1-.13.36.39.39,0,0,1-.31.15Zm-.44,8.66v-2.27a.73.73,0,0,1,.17-.47.51.51,0,0,1,.4-.2h2a.54.54,0,0,1,.41.2.73.73,0,0,1,.17.47V169a.71.71,0,0,1-.17.47.54.54,0,0,1-.41.2h-1.47s0,0,0,.06a.41.41,0,0,1-.11.28.3.3,0,0,1-.25.13h-.15a.48.48,0,0,1-.36-.17A.64.64,0,0,1,308.71,169.52Zm.51-5.29a.4.4,0,0,1-.31-.15.54.54,0,0,1,0-.7.39.39,0,0,1,.31-.14h2.13a.36.36,0,0,1,.3.14.54.54,0,0,1,0,.7.37.37,0,0,1-.3.15Zm0,1.68a.4.4,0,0,1-.31-.15.54.54,0,0,1,0-.7.38.38,0,0,1,.31-.16h2.13a.35.35,0,0,1,.3.16.54.54,0,0,1,0,.7.37.37,0,0,1-.3.15Zm.51,1.78v.86c0,.06,0,.09.08.09h1c.06,0,.08,0,.08-.09v-.86c0-.07,0-.11-.08-.11h-1C309.75,167.58,309.73,167.62,309.73,167.69Zm7.67-1.34a.41.41,0,0,1,.34.16.6.6,0,0,1,.13.38.56.56,0,0,1-.14.39.41.41,0,0,1-.33.16h-1.76a.08.08,0,0,0-.09.09v1.88a.71.71,0,0,1-.15.46.51.51,0,0,1-.38.18.5.5,0,0,1-.4-.19.68.68,0,0,1-.15-.45v-1.88a.08.08,0,0,0-.09-.09H312.5a.41.41,0,0,1-.33-.16.56.56,0,0,1-.14-.39.56.56,0,0,1,.14-.38.41.41,0,0,1,.33-.16h1.88c.06,0,.09,0,.09-.11v-1.5c0-.06,0-.1-.09-.1H312.8a.4.4,0,0,1-.31-.15.56.56,0,0,1-.12-.36.61.61,0,0,1,.12-.37.4.4,0,0,1,.31-.15h1.58a.08.08,0,0,0,.09-.09v-1.39c0-.07,0-.11-.09-.11h-1.89a.43.43,0,0,1-.33-.15.57.57,0,0,1-.13-.37.6.6,0,0,1,.13-.38.43.43,0,0,1,.33-.15h.83c.05,0,.07,0,.05-.08-.16-.4-.28-.68-.36-.86a.46.46,0,0,1,0-.38.37.37,0,0,1,.25-.24.56.56,0,0,1,.42,0,.63.63,0,0,1,.3.32c.13.28.28.65.47,1.12a.11.11,0,0,0,.11.08h.95a.16.16,0,0,0,.14-.08l.48-1.1a.65.65,0,0,1,.29-.34.51.51,0,0,1,.4-.07.41.41,0,0,1,.28.25.5.5,0,0,1,0,.4c-.1.24-.22.53-.38.86a0,0,0,0,0,0,.05s0,0,0,0h.5a.39.39,0,0,1,.32.15.56.56,0,0,1,.14.38.53.53,0,0,1-.14.37.39.39,0,0,1-.32.15h-1.62c-.06,0-.09,0-.09.11v1.39a.08.08,0,0,0,.09.09h1.46a.4.4,0,0,1,.31.15.56.56,0,0,1,.13.37.52.52,0,0,1-.13.36.4.4,0,0,1-.31.15h-1.46c-.06,0-.09,0-.09.1v1.5c0,.07,0,.11.09.11Z"/><path class="cls-2" d="M323.1,169.64a2.56,2.56,0,0,1-2.3-1,6.74,6.74,0,0,1-.65-3.51c0-1.31,0-2.86.1-4.65a.7.7,0,0,1,.18-.45.47.47,0,0,1,.39-.17.5.5,0,0,1,.38.2.61.61,0,0,1,.14.44c-.07,1.77-.1,3.31-.1,4.63a10.94,10.94,0,0,0,.1,1.68,2.43,2.43,0,0,0,.35,1,1.2,1.2,0,0,0,.56.48,2.51,2.51,0,0,0,.85.12q1.9,0,3-3a.59.59,0,0,1,.28-.32.48.48,0,0,1,.39,0,.54.54,0,0,1,.29.32.63.63,0,0,1,0,.45,7,7,0,0,1-1.71,2.78A3.37,3.37,0,0,1,323.1,169.64Z"/><path class="cls-2" d="M331.38,166.41a10.94,10.94,0,0,1-1.2-1.07,1.32,1.32,0,0,1-.23-.81,1.3,1.3,0,0,1,.25-.85,9.25,9.25,0,0,1,1.24-1.06c1-.76,2.14-1.67,3.3-2.71a.53.53,0,0,1,.39-.13.52.52,0,0,1,.36.21.63.63,0,0,1-.07.83c-1.18,1.05-2.28,2-3.32,2.73-.4.31-.66.52-.77.63a.46.46,0,0,0-.16.35.55.55,0,0,0,.14.34,7.15,7.15,0,0,0,.7.59,45.52,45.52,0,0,1,3.73,3.26.66.66,0,0,1,.17.41.59.59,0,0,1-.14.41.54.54,0,0,1-.39.2.57.57,0,0,1-.4-.16Q333.2,167.87,331.38,166.41Z"/><path class="cls-2" d="M340.39,169.52a.48.48,0,0,1-.39-.11.55.55,0,0,1-.22-.38,23.52,23.52,0,0,1,0-8.53.55.55,0,0,1,.22-.39.51.51,0,0,1,.39-.11.41.41,0,0,1,.32.22.61.61,0,0,1,.07.42,23.18,23.18,0,0,0,0,8.25.59.59,0,0,1-.07.41A.41.41,0,0,1,340.39,169.52Zm3.73.06a2.34,2.34,0,0,1-1.68-.57,2.11,2.11,0,0,1-.6-1.6,1.92,1.92,0,0,1,.59-1.51,2.39,2.39,0,0,1,1.69-.55,2.6,2.6,0,0,1,1,.2q.09,0,.09-.06v-2.68c0-.07,0-.1-.09-.1h-2.5a.41.41,0,0,1-.33-.16.52.52,0,0,1-.13-.37.55.55,0,0,1,.13-.38.43.43,0,0,1,.33-.15h2.5c.06,0,.09,0,.09-.11v-1.18a.64.64,0,0,1,.14-.42.48.48,0,0,1,.36-.17.45.45,0,0,1,.36.17.6.6,0,0,1,.15.42v1.18c0,.07,0,.11.08.11h1.19a.43.43,0,0,1,.33.15.6.6,0,0,1,.13.38.57.57,0,0,1-.13.37.41.41,0,0,1-.33.16h-1.19s-.08,0-.08.1v3.36a.21.21,0,0,0,.06.17,13.86,13.86,0,0,1,1.35,1.38.59.59,0,0,1,.14.41.56.56,0,0,1-.14.4.43.43,0,0,1-.35.16.5.5,0,0,1-.35-.18l-.68-.75s-.06,0-.07,0A1.85,1.85,0,0,1,344.12,169.58Zm-.05-3.15c-.81,0-1.22.33-1.22,1s.41,1.11,1.22,1.11a1,1,0,0,0,.85-.32,1.57,1.57,0,0,0,.27-1v-.26a.19.19,0,0,0-.08-.15A2,2,0,0,0,344.07,166.43Z"/><path class="cls-2" d="M353.75,169.46a5,5,0,0,1-2.82-.69,2.1,2.1,0,0,1-1-1.83,4.3,4.3,0,0,1,1.17-2.51.49.49,0,0,1,.36-.18.47.47,0,0,1,.38.14.51.51,0,0,1,.16.37.65.65,0,0,1-.12.39,3.11,3.11,0,0,0-.87,1.67,1.27,1.27,0,0,0,.73,1.11,4.14,4.14,0,0,0,2,.42,11.58,11.58,0,0,0,2.89-.39.42.42,0,0,1,.36.07.58.58,0,0,1,.22.35.66.66,0,0,1-.06.44.49.49,0,0,1-.31.24A12.68,12.68,0,0,1,353.75,169.46Zm-2.47-8.93h5a.41.41,0,0,1,.33.16.56.56,0,0,1,.14.38.56.56,0,0,1-.14.39.43.43,0,0,1-.33.15h-5a.43.43,0,0,1-.33-.15.56.56,0,0,1-.14-.39.56.56,0,0,1,.14-.38A.41.41,0,0,1,351.28,160.53Z"/><path class="cls-2" d="M360.25,162.18a.38.38,0,0,1-.32-.16.52.52,0,0,1-.13-.37.55.55,0,0,1,.13-.38.39.39,0,0,1,.32-.15H362a.09.09,0,0,0,.1-.08c.06-.35.11-.65.14-.88a.67.67,0,0,1,.2-.41.46.46,0,0,1,.38-.13.38.38,0,0,1,.33.2.56.56,0,0,1,.1.42l-.12.77c0,.08,0,.11.07.11h4.24a.39.39,0,0,1,.32.15.56.56,0,0,1,.14.38.53.53,0,0,1-.14.37.38.38,0,0,1-.32.16H363a.1.1,0,0,0-.11.09,18.71,18.71,0,0,1-.7,2.25v0h0a5.1,5.1,0,0,1,2.32-.6,3,3,0,0,1,2.11.68,2.55,2.55,0,0,1,.73,2,2.61,2.61,0,0,1-1,2.14,4.23,4.23,0,0,1-2.7.8,10.85,10.85,0,0,1-2-.2.42.42,0,0,1-.3-.22.51.51,0,0,1-.07-.4.53.53,0,0,1,.19-.34.4.4,0,0,1,.34-.1,9.2,9.2,0,0,0,1.88.2,3.11,3.11,0,0,0,1.93-.53,1.67,1.67,0,0,0,.71-1.4q0-1.53-1.83-1.53a4.52,4.52,0,0,0-2.4.71.85.85,0,0,1-.89.07.44.44,0,0,1-.25-.31.64.64,0,0,1,0-.43,20,20,0,0,0,.93-2.77q0-.09-.06-.09Z"/><path class="cls-2" d="M370.9,166.05a.48.48,0,0,1-.31-.25.54.54,0,0,1-.07-.41c.11-.8.22-1.65.34-2.57a.64.64,0,0,1,.2-.4.51.51,0,0,1,.4-.14.42.42,0,0,1,.34.21.61.61,0,0,1,.11.44c-.11.87-.19,1.49-.25,1.87v0h0a5.55,5.55,0,0,1,1.54-.89,4.57,4.57,0,0,1,1.67-.34c1.93,0,2.89.9,2.89,2.7a2.81,2.81,0,0,1-1.12,2.4,5.5,5.5,0,0,1-3.29.83c-.52,0-1.11,0-1.76-.09a.41.41,0,0,1-.32-.19.55.55,0,0,1-.11-.41.5.5,0,0,1,.15-.37.4.4,0,0,1,.34-.11c.72.07,1.28.11,1.7.11a4.3,4.3,0,0,0,2.4-.56,1.85,1.85,0,0,0,.82-1.61q0-1.65-1.86-1.65a3.75,3.75,0,0,0-1.41.33,6.54,6.54,0,0,0-1.56.9A.94.94,0,0,1,370.9,166.05Zm1.35-5.86a32.35,32.35,0,0,0,3.77.28.42.42,0,0,1,.32.16.57.57,0,0,1,.12.37.55.55,0,0,1-.13.38.41.41,0,0,1-.32.15,29.15,29.15,0,0,1-3.9-.29.39.39,0,0,1-.3-.2.63.63,0,0,1-.09-.39.52.52,0,0,1,.18-.35A.46.46,0,0,1,372.25,160.19Z"/><path class="cls-2" d="M383,167.55l4.16-2s0,0,0,0a0,0,0,0,0,0,0L383,163.62a.78.78,0,0,1-.45-.77.35.35,0,0,1,.15-.31.25.25,0,0,1,.3,0l4.33,2.16a.91.91,0,0,1,.37.36,1.13,1.13,0,0,1,.13.54,1.14,1.14,0,0,1-.13.55.91.91,0,0,1-.37.36L383,168.65a.24.24,0,0,1-.3,0,.36.36,0,0,1-.15-.31A.76.76,0,0,1,383,167.55Z"/></g></g></svg>