<svg xmlns="http://www.w3.org/2000/svg" viewBox="0 0 312.29 118.84"><defs><style>.cls-1{fill:#2ea7e0;}.cls-2{fill:#f8b62d;stroke:#fff;stroke-miterlimit:10;}.cls-3{fill:#fff;}</style></defs><g id="レイヤー_2" data-name="レイヤー 2"><g id="レイヤー_2-2" data-name="レイヤー 2"><rect class="cls-1" width="312.29" height="118.84" rx="5.42"/><path class="cls-2" d="M22.63,57.71a1.51,1.51,0,0,1-1.11-.46,1.55,1.55,0,0,1-.46-1.15A1.53,1.53,0,0,1,21.52,55a1.55,1.55,0,0,1,1.11-.46h2.24c.2,0,.3-.1.3-.31V52.39a.14.14,0,0,0-.08-.12c-.06,0-.1,0-.12,0l-.21.21a1.85,1.85,0,0,1-1.23.51,2,2,0,0,1-1.31-.41,1.31,1.31,0,0,1-.55-1,1.35,1.35,0,0,1,.42-1.08,38.69,38.69,0,0,0,5-5.87,2.56,2.56,0,0,1,1.17-.91,2.11,2.11,0,0,1,1.44-.09,1.14,1.14,0,0,1,.89.76,1.22,1.22,0,0,1-.1,1.16,3.25,3.25,0,0,0-.24.38,3.25,3.25,0,0,1-.24.38c-.09.14-.05.2.14.2H49.41a1.43,1.43,0,0,1,1.06.45,1.49,1.49,0,0,1,0,2.13,1.42,1.42,0,0,1-1.06.44h-.93a.28.28,0,0,0-.31.31v4.36a.28.28,0,0,0,.31.31h2.23a1.56,1.56,0,0,1,1.12.46,1.53,1.53,0,0,1,.46,1.12,1.55,1.55,0,0,1-.46,1.15,1.52,1.52,0,0,1-1.12.46H48.48c-.2,0-.31.1-.31.28v4.74a.27.27,0,0,0,.31.3h1.65a1.47,1.47,0,0,1,1,.43,1.37,1.37,0,0,1,.45,1,1.41,1.41,0,0,1-.45,1,1.44,1.44,0,0,1-1,.44H23.22a1.44,1.44,0,0,1-1-.44,1.41,1.41,0,0,1-.45-1,1.37,1.37,0,0,1,.45-1,1.47,1.47,0,0,1,1-.43h1.65a.27.27,0,0,0,.3-.3V58c0-.18-.1-.28-.3-.28ZM25.11,68a1.8,1.8,0,0,1,1-.82,1.7,1.7,0,0,1,1.32.13,1.64,1.64,0,0,1,.69,2.27,43.31,43.31,0,0,1-2.92,4.46,1.7,1.7,0,0,1-1.16.69,1.91,1.91,0,0,1-1.34-.28,1.41,1.41,0,0,1-.71-1,1.57,1.57,0,0,1,.3-1.26Q23.56,70.48,25.11,68Zm3.67-18.16v4.36a.27.27,0,0,0,.31.31h2.3a.28.28,0,0,0,.31-.31V49.85a.28.28,0,0,0-.31-.31h-2.3A.28.28,0,0,0,28.78,49.85Zm0,8.14v4.74c0,.2.1.3.31.3h2.3a.27.27,0,0,0,.31-.3V58c0-.18-.11-.28-.31-.28h-2.3C28.88,57.71,28.78,57.81,28.78,58Zm3.64,9.54a1.79,1.79,0,0,1,1.35.33A1.76,1.76,0,0,1,34.51,69c.23,1.21.45,2.57.65,4.08a1.65,1.65,0,0,1-.36,1.31,1.82,1.82,0,0,1-1.18.68,1.6,1.6,0,0,1-1.29-.36,1.8,1.8,0,0,1-.67-1.18c-.07-.57-.28-1.91-.65-4a1.62,1.62,0,0,1,.28-1.3A1.6,1.6,0,0,1,32.42,67.53Zm2.71-17.68v4.36a.27.27,0,0,0,.31.31h2.47a.27.27,0,0,0,.31-.31V49.85a.28.28,0,0,0-.31-.31H35.44A.28.28,0,0,0,35.13,49.85Zm0,8.14v4.74c0,.2.1.3.31.3h2.47c.21,0,.31-.1.31-.3V58c0-.18-.1-.28-.31-.28H35.44C35.23,57.71,35.13,57.81,35.13,58Zm4.08,9.37a1.83,1.83,0,0,1,1.38.12,1.86,1.86,0,0,1,.92,1c.44,1.08,1,2.5,1.58,4.26A1.46,1.46,0,0,1,43,74a1.59,1.59,0,0,1-1,.79,1.84,1.84,0,0,1-1.32-.16,1.7,1.7,0,0,1-.88-1c-.52-1.53-1-3-1.58-4.26a1.51,1.51,0,0,1,.06-1.25A1.39,1.39,0,0,1,39.21,67.36Zm2.44-17.51v4.36a.27.27,0,0,0,.31.31h2.33c.19,0,.28-.1.28-.31V49.85c0-.2-.09-.31-.28-.31H42A.28.28,0,0,0,41.65,49.85Zm0,8.14v4.74c0,.2.1.3.31.3h2.33c.19,0,.28-.1.28-.3V58a.25.25,0,0,0-.28-.28H42C41.75,57.71,41.65,57.81,41.65,58Zm4.26,9.2A1.83,1.83,0,0,1,47.23,67a1.75,1.75,0,0,1,1.11.74c1.19,1.74,2.16,3.2,2.89,4.39a1.52,1.52,0,0,1,.15,1.25,1.63,1.63,0,0,1-.77,1,1.66,1.66,0,0,1-1.29.15,1.79,1.79,0,0,1-1-.77q-.87-1.41-2.85-4.36a1.5,1.5,0,0,1-.24-1.22A1.45,1.45,0,0,1,45.91,67.19Z"/><path class="cls-2" d="M63,74.79a1.72,1.72,0,0,1-2.94-1.22v-9s0-.07,0-.07a.13.13,0,0,0-.07,0,30.25,30.25,0,0,1-2.57,5.35,1.14,1.14,0,0,1-1,.52,1.1,1.1,0,0,1-1-.62,2.92,2.92,0,0,1,.17-3.23,32.23,32.23,0,0,0,3.88-8c0-.18,0-.27-.2-.27H56.72a1.43,1.43,0,0,1-1.06-.45,1.44,1.44,0,0,1-.45-1.06,1.41,1.41,0,0,1,.45-1,1.45,1.45,0,0,1,1.06-.43h3.09c.18,0,.27-.1.27-.31V46.11a1.72,1.72,0,1,1,3.44,0V55a.27.27,0,0,0,.31.31H66.4a1.45,1.45,0,0,1,1.06.43,1.41,1.41,0,0,1,.45,1,1.44,1.44,0,0,1-.45,1.06,1.43,1.43,0,0,1-1.06.45H64.92c-.2,0-.26.09-.17.27q.93,1.83,2.78,5.53a1.86,1.86,0,0,1,.17,1.29A1.92,1.92,0,0,1,67,66.5a1.12,1.12,0,0,1-1,.22,1.25,1.25,0,0,1-.84-.7c-.16-.37-.41-.9-.74-1.61s-.58-1.25-.74-1.62a.09.09,0,0,0-.08-.06s0,0,0,.06V73.57A1.67,1.67,0,0,1,63,74.79ZM56.48,46.32a1.58,1.58,0,0,1,1.18.19,1.38,1.38,0,0,1,.71.94c.27,1.15.63,2.77,1.06,4.87a1.55,1.55,0,0,1-.2,1.17,1.46,1.46,0,0,1-1,.69A1.34,1.34,0,0,1,57.17,54a1.5,1.5,0,0,1-.66-.92q-.43-2.27-1.16-4.91A1.46,1.46,0,0,1,55.54,47,1.53,1.53,0,0,1,56.48,46.32Zm9,1a1.57,1.57,0,0,1,.6-1A1.59,1.59,0,0,1,67.19,46a1.38,1.38,0,0,1,1,.59,1.47,1.47,0,0,1,.26,1.13c-.41,2.11-.84,3.93-1.27,5.46a1.47,1.47,0,0,1-.72.91,1.58,1.58,0,0,1-1.17.12,1.51,1.51,0,0,1-1-1.86A43.75,43.75,0,0,0,65.44,47.28Zm20.18,16.2a1.3,1.3,0,0,1,1.15.26,1.49,1.49,0,0,1,.57,1A1.65,1.65,0,0,1,87,66a1.71,1.71,0,0,1-1.08.67L84.42,67a.34.34,0,0,0-.31.34V73.5a1.76,1.76,0,0,1-1.78,1.79,1.78,1.78,0,0,1-1.79-1.79V68a.24.24,0,0,0-.1-.19.19.19,0,0,0-.21-.05L68.91,69.83a1.41,1.41,0,0,1-1.17-.24,1.29,1.29,0,0,1-.55-1,1.76,1.76,0,0,1,1.41-1.89l11.63-2.19c.21,0,.31-.16.31-.35V46.18a1.76,1.76,0,0,1,1.79-1.78,1.74,1.74,0,0,1,1.78,1.78v17.3a.26.26,0,0,0,.11.19.19.19,0,0,0,.2,0ZM69.2,56.55a1.47,1.47,0,0,1,.5-1.17,1.87,1.87,0,0,1,2.5,0c1.63,1.53,3.11,3,4.46,4.46a1.66,1.66,0,0,1,.45,1.24,1.69,1.69,0,0,1-.55,1.2,1.63,1.63,0,0,1-1.2.46,1.6,1.6,0,0,1-1.17-.53q-2.26-2.43-4.46-4.5A1.6,1.6,0,0,1,69.2,56.55Zm7-2.92q-2-2.13-3.84-3.91a1.72,1.72,0,0,1-.54-1.17,1.45,1.45,0,0,1,.5-1.13,1.84,1.84,0,0,1,1.24-.5,1.67,1.67,0,0,1,1.23.46c1.15,1,2.44,2.35,3.88,3.88a1.65,1.65,0,0,1,.45,1.24,1.69,1.69,0,0,1-.55,1.2,1.63,1.63,0,0,1-1.2.46A1.6,1.6,0,0,1,76.25,53.63Z"/><path class="cls-2" d="M89.36,61.87l-.17-.45A3.71,3.71,0,0,1,89.6,58a37.91,37.91,0,0,0,4.91-12,1.9,1.9,0,0,1,.76-1.13,1.65,1.65,0,0,1,1.3-.27,1.72,1.72,0,0,1,1.13.73A1.63,1.63,0,0,1,98,46.59a44.18,44.18,0,0,1-2,6.73,1.81,1.81,0,0,0-.1.58V73.54a1.69,1.69,0,0,1-.52,1.23,1.65,1.65,0,0,1-1.23.52,1.73,1.73,0,0,1-1.26-.52,1.66,1.66,0,0,1-.53-1.23v-13c0-.05,0-.07,0-.07a.14.14,0,0,0-.09,0c-.23.39-.57.93-1,1.62a1,1,0,0,1-1,.43A1,1,0,0,1,89.36,61.87Zm21.23,12.9a1.74,1.74,0,0,1-1.28.52,1.78,1.78,0,0,1-1.79-1.79V69.76a.28.28,0,0,0-.31-.31h-4.12a1.82,1.82,0,0,1-1.35-.58,1.91,1.91,0,0,1-.57-1.37v-.07a.14.14,0,0,0,0-.11s-.07,0-.12,0l-1.75,2.16a1.63,1.63,0,0,1-2.44,0,1.9,1.9,0,0,1-.49-1.37,2,2,0,0,1,.53-1.37,49.38,49.38,0,0,0,8.89-13.39c.09-.16,0-.24-.17-.24H99.22a1.45,1.45,0,0,1-1.09-.45,1.61,1.61,0,0,1,0-2.19,1.45,1.45,0,0,1,1.09-.45h8a.27.27,0,0,0,.31-.31V46.18a1.76,1.76,0,0,1,1.79-1.78,1.77,1.77,0,0,1,1.28.51,1.69,1.69,0,0,1,.54,1.27v3.57c0,.21.09.31.27.31h8.41a1.56,1.56,0,0,1,1.12.45,1.53,1.53,0,0,1,0,2.19,1.56,1.56,0,0,1-1.12.45h-6.56c-.16,0-.21.08-.17.24A48.54,48.54,0,0,0,120.84,66a2.67,2.67,0,0,1,.62,1.53,2.74,2.74,0,0,1-.38,1.63l0,.1a1.41,1.41,0,0,1-1.07.66,1.23,1.23,0,0,1-1.13-.49c-.69-.84-1.2-1.52-1.55-2a.07.07,0,0,0-.1,0,.08.08,0,0,0-.07.08v.11a2,2,0,0,1-1.95,2H111.4c-.18,0-.27.11-.27.31V73.5A1.67,1.67,0,0,1,110.59,74.77Zm-3.38-8.34c.21,0,.31-.09.31-.27V56.75a.12.12,0,0,0-.1-.07,52.25,52.25,0,0,1-5.56,9.55c-.09.13-.06.2.1.2Zm3.92-9.78v9.51a.24.24,0,0,0,.27.27h5a.15.15,0,0,0,.12-.07.13.13,0,0,0,0-.13,55.68,55.68,0,0,1-5.29-9.65A.1.1,0,0,0,111.13,56.65Z"/><path class="cls-2" d="M124.55,73.57a1.17,1.17,0,0,1-.77-.58,1.29,1.29,0,0,1-.16-1,54.83,54.83,0,0,0,1-6.49,1.1,1.1,0,0,1,.43-.77,1.15,1.15,0,0,1,.84-.26,1.25,1.25,0,0,1,.79.45,1.2,1.2,0,0,1,.27.86,69.44,69.44,0,0,1-1,6.89,1.15,1.15,0,0,1-1.44.86Zm24-20.18a.28.28,0,0,0-.31.31v1.47c0,.19.11.28.31.28h3.85a2,2,0,0,1,2,1.95v6.32a1.84,1.84,0,0,1-.58,1.37,1.89,1.89,0,0,1-1.37.59h-3.51c-.18,0-.25.08-.2.24.82,2.35,2.76,4.2,5.8,5.52a1.81,1.81,0,0,1,.91.9,1.51,1.51,0,0,1,.05,1.23,1.49,1.49,0,0,1-.86.91,1.4,1.4,0,0,1-1.23,0,15.29,15.29,0,0,1-6.53-5.87q-.13-.21-.27,0a15.69,15.69,0,0,1-6.83,5.9,1.54,1.54,0,0,1-1.29,0,1.63,1.63,0,0,1-.91-.91,1.51,1.51,0,0,1,0-1.25,1.71,1.71,0,0,1,.9-.91q4.56-2,5.8-5.46.06-.27-.21-.27h-3.26a2,2,0,0,1-2-2V57.4a1.89,1.89,0,0,1,.59-1.37,1.86,1.86,0,0,1,1.37-.58h3.67c.21,0,.31-.09.31-.28V53.7a.27.27,0,0,0-.31-.31h-2.19a.94.94,0,0,1-.93-.93s0,0,0-.07a0,0,0,0,0-.06,0c-.69.6-1.22,1-1.58,1.31a1.35,1.35,0,0,1-1.15.22,1.27,1.27,0,0,1-.91-.74.54.54,0,0,1-.07-.17.45.45,0,0,0-.07-.14c0-.13-.14-.16-.27-.06a1.44,1.44,0,0,1-.9.34h-1.37a.27.27,0,0,0-.31.31v1.71c0,.19.1.28.31.28h1.37a1.33,1.33,0,0,1,1.34,1.34,1.29,1.29,0,0,1-.39.94,1.32,1.32,0,0,1-.95.4h-1.37c-.21,0-.31.09-.31.27v1.92c0,.19.1.28.31.28h.93a2,2,0,0,1,1.95,1.95v.79a66.44,66.44,0,0,1-.31,7.62,7.39,7.39,0,0,1-.91,3.26,2.18,2.18,0,0,1-1.87.79c-.5,0-1.16,0-2-.1a1.6,1.6,0,0,1-1.11-.51,1.74,1.74,0,0,1-.5-1.17,1.24,1.24,0,0,1,.41-1,1.26,1.26,0,0,1,1.07-.34l1.27.06a1,1,0,0,0,.48-.08c.09-.06.17-.25.25-.59a8.27,8.27,0,0,0,.16-1.59c0-.16-.09-.22-.28-.17a1,1,0,0,1-.7-.14.81.81,0,0,1-.39-.58q-.15-.8-.69-3.33a.94.94,0,0,1,.75-1.1.92.92,0,0,1,.72.15.91.91,0,0,1,.42.6c0,.1.05.22.08.38l.09.38h0v-2c0-.2-.09-.31-.27-.31h-7.73a1.9,1.9,0,0,1-1.37-.56,1.82,1.82,0,0,1-.58-1.36V47.21a1.86,1.86,0,0,1,.58-1.37,1.89,1.89,0,0,1,1.37-.59h9.89a1.47,1.47,0,0,1,1,.43,1.37,1.37,0,0,1,.45,1,1.39,1.39,0,0,1-.45,1,1.41,1.41,0,0,1-1,.45h-1.75c-.21,0-.31.09-.31.28V50.2a.28.28,0,0,0,.31.31h1.37a1.24,1.24,0,0,1,1.17.65c.09.14.17.16.24.07a1.65,1.65,0,0,1,.45-.48,41.66,41.66,0,0,0,5.9-5.53,3.15,3.15,0,0,1,2.51-1.17A3.09,3.09,0,0,1,149,45.19a42.65,42.65,0,0,0,5.76,5.45,2,2,0,0,1,.71,1.15,2.07,2.07,0,0,1-.16,1.36,1.31,1.31,0,0,1-.91.75,1.21,1.21,0,0,1-1.15-.24c-.64-.5-1.11-.89-1.4-1.16,0,0-.05,0-.07,0a.07.07,0,0,0,0,.06.81.81,0,0,1-.24.59.78.78,0,0,1-.58.24ZM129,72.92a1.07,1.07,0,0,1-.78-.24,1,1,0,0,1-.36-.72q-.11-2.53-.37-6.11a1.1,1.1,0,0,1,.22-.79.93.93,0,0,1,.7-.38,1,1,0,0,1,.77.19.91.91,0,0,1,.4.7q.27,2.82.45,6.18a1,1,0,0,1-.28.78A1.37,1.37,0,0,1,129,72.92Zm2.16-22.72V48.45a.24.24,0,0,0-.28-.28H128.7c-.2,0-.31.09-.31.28V50.2a.28.28,0,0,0,.31.31h2.16C131.05,50.51,131.14,50.4,131.14,50.2Zm0,5V53.46c0-.21-.09-.31-.28-.31H128.7a.28.28,0,0,0-.31.31v1.71c0,.19.11.28.31.28h2.16A.24.24,0,0,0,131.14,55.17Zm0,5.15V58.4c0-.18-.09-.27-.28-.27H128.7c-.2,0-.31.09-.31.27v1.92c0,.19.11.28.31.28h2.16A.24.24,0,0,0,131.14,60.32Zm.68,10.88a.84.84,0,0,1-.73-.19,1,1,0,0,1-.4-.66c-.16-1.38-.36-2.92-.62-4.64a1,1,0,0,1,.19-.75,1.05,1.05,0,0,1,.67-.42,1,1,0,0,1,.76.18,1,1,0,0,1,.41.65c.25,1.44.47,3,.65,4.67a1.1,1.1,0,0,1-.22.77A1,1,0,0,1,131.82,71.2Zm12.91-8.47V58.5a.28.28,0,0,0-.31-.31h-2.16a.28.28,0,0,0-.31.31v4.23c0,.2.1.3.31.3h2.16C144.63,63,144.73,62.93,144.73,62.73Zm-1.3-12.16h6.07a.14.14,0,0,0,.12-.06.1.1,0,0,0,0-.14q-1.73-1.86-2.92-3.43c-.12-.14-.24-.14-.38,0a41.49,41.49,0,0,1-2.95,3.43.11.11,0,0,0,0,.14A.13.13,0,0,0,143.43,50.57Zm5.11,7.62a.28.28,0,0,0-.31.31v4.23a.27.27,0,0,0,.31.3h2.16c.19,0,.28-.1.28-.3V58.5c0-.2-.09-.31-.28-.31Z"/><path class="cls-2" d="M165.09,73.4a1.73,1.73,0,0,1-1.36-.55,2,2,0,0,1-.57-1.41V48.38a1.93,1.93,0,0,1,1.93-1.92,1.9,1.9,0,0,1,1.37.56,1.82,1.82,0,0,1,.58,1.36V69.56c0,.18.09.27.28.27a21.21,21.21,0,0,0,10.45-3.48,19.35,19.35,0,0,0,6.47-8.5,1.76,1.76,0,0,1,.94-1,1.65,1.65,0,0,1,1.36,0,1.72,1.72,0,0,1,1,1,1.77,1.77,0,0,1,0,1.39,22.11,22.11,0,0,1-8.47,10.52Q173.57,73.16,165.09,73.4Z"/><path class="cls-2" d="M199,61.42q-.85-3.44-1.54-5.9a1.49,1.49,0,0,1,.17-1.22,1.62,1.62,0,0,1,1-.74,1.76,1.76,0,0,1,1.29.22,1.73,1.73,0,0,1,.8,1c.65,2.24,1.17,4.2,1.58,5.87a1.51,1.51,0,0,1-.2,1.25,1.74,1.74,0,0,1-1.07.78,1.67,1.67,0,0,1-1.28-.25A1.72,1.72,0,0,1,199,61.42Zm18.68-9a1.69,1.69,0,0,1,1.2.55,1.6,1.6,0,0,1,.44,1.24q-.43,9.16-4.1,13.47T203.39,73.3a1.55,1.55,0,0,1-1.18-.28,1.72,1.72,0,0,1-.7-1.06,1.4,1.4,0,0,1,.24-1.19,1.5,1.5,0,0,1,1-.63q7-1.2,9.9-4.69T216,54.07a1.62,1.62,0,0,1,.55-1.16A1.59,1.59,0,0,1,217.71,52.46Zm-8,8.86a1.72,1.72,0,0,1-2.35.55,1.71,1.71,0,0,1-.79-1.07q-.88-3.52-1.61-6.18a1.49,1.49,0,0,1,.19-1.23,1.69,1.69,0,0,1,2.37-.53,1.7,1.7,0,0,1,.8,1.08q1.17,4.43,1.58,6.11A1.57,1.57,0,0,1,209.69,61.32Z"/><path class="cls-2" d="M232,72.27a1.61,1.61,0,0,1-1.32.12,1.75,1.75,0,0,1-1-.84,1.5,1.5,0,0,1-.12-1.27,1.76,1.76,0,0,1,.84-1A50.46,50.46,0,0,0,241.8,61a37.33,37.33,0,0,0,7.52-10.07c.07-.16,0-.24-.17-.24H233.5a1.69,1.69,0,0,1,0-3.37h18.26a1.61,1.61,0,0,1,1.18.5,1.63,1.63,0,0,1,.5,1.18,7.08,7.08,0,0,1-.69,3.16,37.78,37.78,0,0,1-6.17,9c-.12.12-.11.25,0,.41q4.74,4.37,8.48,8.1a1.74,1.74,0,0,1,.51,1.26,1.71,1.71,0,0,1-.51,1.25,1.67,1.67,0,0,1-1.25.5,1.79,1.79,0,0,1-1.26-.53q-4.67-4.74-8.37-8.14a.29.29,0,0,0-.45,0A53.08,53.08,0,0,1,232,72.27Z"/><path class="cls-2" d="M266.14,50.85a1.72,1.72,0,0,1-.91-1.05,1.78,1.78,0,0,1,.12-1.39,2,2,0,0,1,2.54-.79c2.66,1.35,5.09,2.67,7.31,4a1.72,1.72,0,0,1,.88,1.1,1.86,1.86,0,0,1-.19,1.4,1.69,1.69,0,0,1-1.1.88,1.85,1.85,0,0,1-1.41-.19Q270.05,52.84,266.14,50.85Zm23.69-.45a1.82,1.82,0,0,1,1.11.77,1.78,1.78,0,0,1,.26,1.33q-4,17.61-23.62,20a1.7,1.7,0,0,1-1.34-.36,1.8,1.8,0,0,1-.68-1.22,1.65,1.65,0,0,1,.32-1.28A1.69,1.69,0,0,1,267,69q8.69-1.17,13.73-5.39a21.91,21.91,0,0,0,7-11.91,1.71,1.71,0,0,1,.79-1.07A1.79,1.79,0,0,1,289.83,50.4Z"/><path class="cls-3" d="M11.51,20.81a.65.65,0,0,1-.47-.2.68.68,0,0,1,0-.94.65.65,0,0,1,.47-.2h5.2c.09,0,.13,0,.13-.13v-.68a.75.75,0,0,1,.22-.53.76.76,0,0,1,1.05,0,.75.75,0,0,1,.22.53v.68c0,.09,0,.13.13.13h3.12a.66.66,0,0,1,.48.2.68.68,0,0,1,0,.94.66.66,0,0,1-.48.2H18.46c-.09,0-.13,0-.13.13V22.3c0,.09,0,.14.13.14h2.6a.65.65,0,0,1,.48.19.63.63,0,0,1,.19.47.65.65,0,0,1-.19.48.69.69,0,0,1-.48.19h-2.6c-.09,0-.13,0-.13.13v2.43a.2.2,0,0,0,.1.19,22,22,0,0,1,3,2.13.69.69,0,0,1,.23.49.7.7,0,0,1-.18.51.63.63,0,0,1-.48.23.74.74,0,0,1-.52-.17c-.75-.65-1.44-1.18-2.06-1.62-.07-.05-.11,0-.13.05a2.64,2.64,0,0,1-1,1.87,4.08,4.08,0,0,1-2.38.57,3.67,3.67,0,0,1-2.38-.71,2.37,2.37,0,0,1-.88-2,2.26,2.26,0,0,1,.78-1.77,3.62,3.62,0,0,1,2.48-.7,5.65,5.65,0,0,1,1.79.3c.09,0,.13,0,.13-.08V23.9c0-.09,0-.13-.13-.13H12a.67.67,0,0,1-.47-.19.65.65,0,0,1-.19-.48.65.65,0,0,1,.66-.66h4.68c.09,0,.13-.05.13-.14V20.94c0-.09,0-.13-.13-.13Zm3.41,8.44a2.12,2.12,0,0,0,1.5-.41,2.21,2.21,0,0,0,.42-1.52.19.19,0,0,0-.13-.18,4.26,4.26,0,0,0-1.64-.37,2.69,2.69,0,0,0-1.42.29.93.93,0,0,0-.43.85,1.17,1.17,0,0,0,.44,1A2,2,0,0,0,14.92,29.25Z"/><path class="cls-3" d="M25.4,20.73a.64.64,0,0,1-.44-.18.59.59,0,0,1-.19-.44.58.58,0,0,1,.19-.44.62.62,0,0,1,.44-.2h6.12c.09,0,.13,0,.13-.13v-.9a.74.74,0,0,1,.22-.52.73.73,0,0,1,1.26.52v.92c0,.07,0,.11.14.11h3.6a.62.62,0,0,1,.44.2.58.58,0,0,1,.19.44.59.59,0,0,1-.19.44.64.64,0,0,1-.44.18h-3.6a.13.13,0,0,0-.14.14v2.82a.69.69,0,0,0,0,.24,5.56,5.56,0,0,1,.28,1.84A4.56,4.56,0,0,1,32.39,29a6.18,6.18,0,0,1-3.51,1.55.71.71,0,0,1-.81-.59.69.69,0,0,1,.12-.52.68.68,0,0,1,.47-.28,5.66,5.66,0,0,0,2.48-.9,2.49,2.49,0,0,0,.9-1.71h0v0s0,0,0,0h0a2.82,2.82,0,0,1-2.13.76,3,3,0,0,1-2.13-.82,2.78,2.78,0,0,1-.84-2.07,2.74,2.74,0,0,1,.84-2.06,2.92,2.92,0,0,1,2.13-.83,3.26,3.26,0,0,1,1.71.45h.05s0,0,0,0v-1c0-.09,0-.14-.13-.14Zm6,4.74a1.46,1.46,0,0,0,.47-1.11,1.49,1.49,0,0,0-.47-1.11,1.7,1.7,0,0,0-1.22-.44,1.72,1.72,0,0,0-1.23.44,1.44,1.44,0,0,0-.49,1.11,1.41,1.41,0,0,0,.49,1.11,1.73,1.73,0,0,0,1.23.45A1.7,1.7,0,0,0,31.36,25.47Zm2.94-3.06a.7.7,0,0,1,.53-.06.69.69,0,0,1,.41.34c.14.26.37.67.66,1.23a.59.59,0,0,1,.05.5.58.58,0,0,1-.33.37.69.69,0,0,1-.51,0,.7.7,0,0,1-.41-.32c-.08-.13-.19-.33-.34-.61s-.25-.48-.32-.61a.62.62,0,0,1-.06-.5A.64.64,0,0,1,34.3,22.41Zm3.16-.26c.16.28.38.7.68,1.25a.61.61,0,0,1,0,.51.65.65,0,0,1-.86.41.7.7,0,0,1-.41-.34c-.07-.13-.18-.33-.34-.6s-.27-.47-.34-.6a.63.63,0,0,1,0-.52.63.63,0,0,1,.33-.4.65.65,0,0,1,.53-.05A.78.78,0,0,1,37.46,22.15Z"/><path class="cls-3" d="M41.56,30.43A.8.8,0,0,1,41,30.3a.72.72,0,0,1-.32-.49,23.43,23.43,0,0,1-.57-5.38,23.41,23.41,0,0,1,.57-5.37.72.72,0,0,1,.32-.49.8.8,0,0,1,.58-.13.6.6,0,0,1,.46.27.66.66,0,0,1,.1.53,24.81,24.81,0,0,0,0,10.39.67.67,0,0,1-.1.53A.6.6,0,0,1,41.56,30.43Zm5.43.08a3.75,3.75,0,0,1-2.45-.72,2.45,2.45,0,0,1-.88-2,2.31,2.31,0,0,1,.87-1.91A3.87,3.87,0,0,1,47,25.18a4.14,4.14,0,0,1,1.43.25c.08,0,.13,0,.13-.08V22a.12.12,0,0,0-.13-.14H44.77a.65.65,0,0,1-.66-.66.65.65,0,0,1,.19-.48.63.63,0,0,1,.47-.19h3.65a.12.12,0,0,0,.13-.13v-1.5a.7.7,0,0,1,.21-.52.75.75,0,0,1,1.06,0,.7.7,0,0,1,.21.52v1.5c0,.09,0,.13.12.13h1.73a.61.61,0,0,1,.47.19.66.66,0,0,1,.2.48.63.63,0,0,1-.2.47.61.61,0,0,1-.47.19H50.15c-.08,0-.12.05-.12.14v4.23a.23.23,0,0,0,.09.21,21.35,21.35,0,0,1,2,1.75.72.72,0,0,1,0,1,.64.64,0,0,1-.51.19.73.73,0,0,1-.51-.22l-1-.95s-.08,0-.1.05C49.73,29.76,48.74,30.51,47,30.51Zm-.07-4c-1.18,0-1.78.41-1.78,1.23s.6,1.4,1.78,1.4a1.64,1.64,0,0,0,1.24-.4,1.8,1.8,0,0,0,.39-1.3v-.33a.23.23,0,0,0-.12-.19A3.18,3.18,0,0,0,46.92,26.54Z"/><path class="cls-3" d="M137.23,103.1a2.84,2.84,0,0,1-1.94-.72,2.25,2.25,0,0,1-.82-1.74,2.54,2.54,0,0,1,.84-1.85,5,5,0,0,1,2.41-1.21.12.12,0,0,0,.11-.13V95.71a.1.1,0,0,0-.11-.11h-2.27a.51.51,0,0,1-.5-.5.49.49,0,0,1,.15-.36.46.46,0,0,1,.35-.16h2.27a.1.1,0,0,0,.11-.11v-.85a.57.57,0,0,1,.17-.42.58.58,0,0,1,.43-.18.62.62,0,0,1,.6.6v.85c0,.08,0,.11.11.11h2.19a.55.55,0,0,1,.52.52.46.46,0,0,1-.16.35.49.49,0,0,1-.36.15h-2.19a.1.1,0,0,0-.11.11v1.57c0,.06,0,.08.11.08l.79,0a4.61,4.61,0,0,1,2.87.82,2.36,2.36,0,0,1,1.09,1.94c0,1.71-.95,2.75-2.86,3.1a.53.53,0,0,1-.42-.09.56.56,0,0,1-.26-.37.46.46,0,0,1,.08-.39.51.51,0,0,1,.34-.23c1.25-.26,1.88-.91,1.88-2a1.42,1.42,0,0,0-.74-1.17,3.46,3.46,0,0,0-2-.51,7.29,7.29,0,0,0-.79,0c-.08,0-.11,0-.11.12v2.67a1.49,1.49,0,0,1-1.8,1.8Zm.5-4.35a3.44,3.44,0,0,0-1.53.78,1.47,1.47,0,0,0-.53,1.11,1.34,1.34,0,0,0,.45,1,1.4,1.4,0,0,0,1,.44.71.71,0,0,0,.56-.18.88.88,0,0,0,.16-.61V98.82C137.83,98.75,137.8,98.73,137.73,98.75Zm5.79-4.22c.47.6.89,1.18,1.27,1.74a.56.56,0,0,1,.07.42.54.54,0,0,1-.24.35.48.48,0,0,1-.4.07.52.52,0,0,1-.34-.24c-.36-.55-.77-1.1-1.22-1.66a.58.58,0,0,1-.12-.4.47.47,0,0,1,.2-.36.49.49,0,0,1,.4-.12A.55.55,0,0,1,143.52,94.53Z"/><path class="cls-3" d="M146.44,97a.53.53,0,0,1-.23-.36.54.54,0,0,1,.1-.43A12.18,12.18,0,0,0,148,93.17a.81.81,0,0,1,.33-.38.73.73,0,0,1,.48-.08.55.55,0,0,1,.36.27.49.49,0,0,1,.05.44l0,0a.08.08,0,0,0,0,0c0,.06,0,.09.07.09h6.47a.51.51,0,0,1,.37.15.5.5,0,0,1,.16.37.51.51,0,0,1-.16.38.51.51,0,0,1-.37.15h-6.91a.15.15,0,0,0-.16.1,13.76,13.76,0,0,1-1.34,2.15.71.71,0,0,1-.4.23A.65.65,0,0,1,146.44,97Zm.27,5.57a16.66,16.66,0,0,0,2.65-1.5.07.07,0,0,0,0-.06s0-.05,0-.06c-.62-.45-1.17-.81-1.64-1.09a.48.48,0,0,1-.24-.33.42.42,0,0,1,.08-.39.55.55,0,0,1,.37-.24.52.52,0,0,1,.42.07,22.63,22.63,0,0,1,1.92,1.27.12.12,0,0,0,.17,0,15.65,15.65,0,0,0,1.27-1.21.64.64,0,0,1,.4-.2.66.66,0,0,1,.43.12.53.53,0,0,1,.2.38.45.45,0,0,1-.13.4,13.05,13.05,0,0,1-1.25,1.23.07.07,0,0,0,0,.12c.51.41,1,.85,1.58,1.32a.5.5,0,0,1,.17.38.6.6,0,0,1-.15.39.51.51,0,0,1-.39.17.56.56,0,0,1-.41-.14c-.56-.49-1.12-1-1.7-1.41a.11.11,0,0,0-.16,0,16.05,16.05,0,0,1-3.06,1.74.66.66,0,0,1-.44,0,.6.6,0,0,1-.33-.28.45.45,0,0,1,0-.39A.5.5,0,0,1,146.71,102.6Zm9.6-3a.53.53,0,0,1,.41-.09.6.6,0,0,1,.38.22.56.56,0,0,1,.13.43,13.11,13.11,0,0,1-.29,2.27,2.15,2.15,0,0,1-.46,1,1.14,1.14,0,0,1-.75.23c-.57,0-1.08-.43-1.5-1.3a9.83,9.83,0,0,1-.74-3.87c0-.07,0-.11-.1-.11h-5.66a.53.53,0,0,1-.52-.51.46.46,0,0,1,.16-.36.49.49,0,0,1,.36-.15h6.37a.65.65,0,0,1,.47.2.62.62,0,0,1,.21.47,16.37,16.37,0,0,0,.2,2.26,6.84,6.84,0,0,0,.38,1.47c.14.31.26.46.37.46s.27-.75.39-2.27A.44.44,0,0,1,156.31,99.63ZM155,96.5h-6a.51.51,0,0,1-.51-.51.49.49,0,0,1,.15-.36.53.53,0,0,1,.36-.15h6a.49.49,0,0,1,.36.15.46.46,0,0,1,.16.36.53.53,0,0,1-.52.51Z"/><path class="cls-3" d="M160,101.39a.09.09,0,0,0,.1-.1v-.7c0-.07,0-.1-.1-.1h-1.11a.69.69,0,0,1-.48-.2.66.66,0,0,1-.2-.48V96.49a.69.69,0,0,1,.2-.48.65.65,0,0,1,.48-.2H160a.09.09,0,0,0,.1-.1v-.64c0-.07,0-.1-.1-.1h-1.53a.49.49,0,0,1-.35-.15.49.49,0,0,1-.15-.36.53.53,0,0,1,.15-.36.49.49,0,0,1,.35-.15H160a.09.09,0,0,0,.1-.1v-.32a.62.62,0,0,1,.63-.63.6.6,0,0,1,.44.18.61.61,0,0,1,.18.45v.32a.1.1,0,0,0,.11.1h1.33a.53.53,0,0,1,.52.51.46.46,0,0,1-.16.36.49.49,0,0,1-.36.15h-1.33c-.07,0-.11,0-.11.1v.64a.1.1,0,0,0,.11.1h1a.62.62,0,0,1,.48.2.66.66,0,0,1,.21.48v3.32a.63.63,0,0,1-.21.48.66.66,0,0,1-.48.2h-1c-.07,0-.11,0-.11.1v.7a.1.1,0,0,0,.11.1h1.4a.49.49,0,0,1,.36.15.53.53,0,0,1,.15.36.49.49,0,0,1-.15.36.5.5,0,0,1-.36.16h-1.4c-.07,0-.11,0-.11.09v.68a.64.64,0,0,1-.18.45.6.6,0,0,1-.44.18.61.61,0,0,1-.45-.18.64.64,0,0,1-.18-.45v-.68c0-.06,0-.09-.1-.09h-1.53a.5.5,0,0,1-.35-.16.49.49,0,0,1-.15-.36.53.53,0,0,1,.15-.36.49.49,0,0,1,.35-.15Zm-.71-4.52v.7c0,.07,0,.11.09.11H160c.07,0,.1,0,.1-.11v-.7c0-.06,0-.09-.1-.09h-.62A.08.08,0,0,0,159.31,96.87Zm.71,2.67c.07,0,.1,0,.1-.11v-.76c0-.06,0-.09-.1-.09h-.62a.08.08,0,0,0-.09.09v.76c0,.07,0,.11.09.11Zm1.35-2.67v.7a.1.1,0,0,0,.11.11H162a.1.1,0,0,0,.11-.11v-.7c0-.06,0-.09-.11-.09h-.54C161.41,96.78,161.37,96.81,161.37,96.87Zm0,1.8v.76a.1.1,0,0,0,.11.11H162a.1.1,0,0,0,.11-.11v-.76c0-.06,0-.09-.11-.09h-.54C161.41,98.58,161.37,98.61,161.37,98.67Zm7.19,3.68a.49.49,0,0,1,.38.16.5.5,0,0,1,.16.39.49.49,0,0,1-.16.38.52.52,0,0,1-.38.15h-5a.52.52,0,0,1-.38-.15.49.49,0,0,1-.16-.38.5.5,0,0,1,.16-.39.49.49,0,0,1,.38-.16h2a.1.1,0,0,0,.11-.1v-1.6c0-.07,0-.1-.11-.1h-1.44a.49.49,0,0,1-.36-.15.46.46,0,0,1-.16-.36.46.46,0,0,1,.16-.35.49.49,0,0,1,.36-.15h1.44a.1.1,0,0,0,.11-.11V99a.61.61,0,0,1,.18-.45.59.59,0,0,1,.44-.18.61.61,0,0,1,.45.18.62.62,0,0,1,.19.45v.44c0,.07,0,.11.09.11h1.43a.49.49,0,0,1,.36.15.47.47,0,0,1,0,.71.49.49,0,0,1-.36.15H167c-.06,0-.09,0-.09.1v1.6c0,.06,0,.1.09.1Zm-4.76-4.66a8.53,8.53,0,0,0,1.52-.78c.06,0,.06-.07,0-.12a10.21,10.21,0,0,1-1.15-1.28.61.61,0,0,1-.11-.5.64.64,0,0,1,.3-.42l.25-.14s0,0,0,0h-.42a.52.52,0,0,1-.38-.15.53.53,0,0,1-.16-.39.55.55,0,0,1,.54-.54h4.06a.49.49,0,0,1,.38.16.53.53,0,0,1,.16.38,2.33,2.33,0,0,1-.23,1,6.75,6.75,0,0,1-1.3,1.85.14.14,0,0,0,0,.07s0,.06.05.06a8.61,8.61,0,0,0,1.45.82A.47.47,0,0,1,169,98a.53.53,0,0,1,0,.41.59.59,0,0,1-.33.29.61.61,0,0,1-.44,0,11.23,11.23,0,0,1-1.85-1.06.12.12,0,0,0-.16,0,10.89,10.89,0,0,1-2,1.07.49.49,0,0,1-.41,0,.5.5,0,0,1-.29-.3.51.51,0,0,1,0-.42A.53.53,0,0,1,163.8,97.69Zm1-3.2a8.82,8.82,0,0,0,1.38,1.57q.09.06.15,0a6,6,0,0,0,1.11-1.56c0-.07,0-.1-.05-.1H164.9a.05.05,0,0,0-.05,0S164.84,94.47,164.85,94.49Z"/><path class="cls-3" d="M172.11,103.22a.63.63,0,0,1-.48-.11.62.62,0,0,1-.29-.4,21.2,21.2,0,0,1,0-8.69.64.64,0,0,1,.29-.41.68.68,0,0,1,.48-.11.55.55,0,0,1,.39.24.55.55,0,0,1,.08.45,20.48,20.48,0,0,0,0,8.35.55.55,0,0,1-.08.45A.54.54,0,0,1,172.11,103.22Zm5.38-.44a4.82,4.82,0,0,1-2.64-.63,1.93,1.93,0,0,1-1-1.69,2.2,2.2,0,0,1,.28-1,4.66,4.66,0,0,1,.8-1.12.64.64,0,0,1,.87,0,.47.47,0,0,1,.19.38.57.57,0,0,1-.15.4,2.35,2.35,0,0,0-.73,1.37q0,1.17,2.34,1.17a10.51,10.51,0,0,0,2.09-.21.51.51,0,0,1,.4.08.49.49,0,0,1,.22.35.62.62,0,0,1-.1.44.53.53,0,0,1-.36.25A11,11,0,0,1,177.49,102.78Zm1.93-8.35a.53.53,0,0,1,.39.16.54.54,0,0,1,.16.4.56.56,0,0,1-.15.39.54.54,0,0,1-.4.16h-4a.55.55,0,0,1-.55-.55.54.54,0,0,1,.16-.4.53.53,0,0,1,.39-.16Z"/><path class="cls-3" d="M185.23,103.1a2.84,2.84,0,0,1-1.94-.72,2.25,2.25,0,0,1-.82-1.74,2.54,2.54,0,0,1,.84-1.85,5,5,0,0,1,2.41-1.21.12.12,0,0,0,.11-.13V95.71a.1.1,0,0,0-.11-.11h-2.27a.51.51,0,0,1-.5-.5.49.49,0,0,1,.15-.36.46.46,0,0,1,.35-.16h2.27a.1.1,0,0,0,.11-.11v-.85a.57.57,0,0,1,.17-.42.58.58,0,0,1,.43-.18.62.62,0,0,1,.6.6v.85c0,.08,0,.11.11.11h2.19a.55.55,0,0,1,.52.52.46.46,0,0,1-.16.35.49.49,0,0,1-.36.15h-2.19a.1.1,0,0,0-.11.11v1.57c0,.06,0,.08.11.08l.79,0a4.61,4.61,0,0,1,2.87.82,2.36,2.36,0,0,1,1.09,1.94c0,1.71-.95,2.75-2.86,3.1a.53.53,0,0,1-.42-.09.56.56,0,0,1-.26-.37.46.46,0,0,1,.08-.39.51.51,0,0,1,.34-.23c1.25-.26,1.88-.91,1.88-2a1.42,1.42,0,0,0-.74-1.17,3.46,3.46,0,0,0-2-.51,7.29,7.29,0,0,0-.79,0c-.08,0-.11,0-.11.12v2.67a1.49,1.49,0,0,1-1.8,1.8Zm.5-4.35a3.44,3.44,0,0,0-1.53.78,1.47,1.47,0,0,0-.53,1.11,1.34,1.34,0,0,0,.45,1,1.4,1.4,0,0,0,1,.44.71.71,0,0,0,.56-.18.88.88,0,0,0,.16-.61V98.82C185.83,98.75,185.8,98.73,185.73,98.75Zm5.79-4.22c.47.6.89,1.18,1.27,1.74a.56.56,0,0,1,.07.42.54.54,0,0,1-.24.35.48.48,0,0,1-.4.07.52.52,0,0,1-.34-.24c-.36-.55-.77-1.1-1.22-1.66a.58.58,0,0,1-.12-.4.47.47,0,0,1,.2-.36.49.49,0,0,1,.4-.12A.55.55,0,0,1,191.52,94.53Z"/><path class="cls-3" d="M195.39,103.49a.6.6,0,0,1-.44.18.61.61,0,0,1-.45-.18.63.63,0,0,1-.18-.45V93.89a.66.66,0,0,1,.2-.48.63.63,0,0,1,.48-.21h3.44a.66.66,0,0,1,.48.21.62.62,0,0,1,.2.48V97a.65.65,0,0,1-.2.48.69.69,0,0,1-.48.2h-2.76a.1.1,0,0,0-.11.11V103A.63.63,0,0,1,195.39,103.49Zm.18-9.16V95a.1.1,0,0,0,.11.11h2.1a.1.1,0,0,0,.11-.11v-.66a.1.1,0,0,0-.11-.11h-2.1A.1.1,0,0,0,195.57,94.33Zm0,1.7v.68c0,.06,0,.09.11.09h2.1c.07,0,.11,0,.11-.09V96c0-.06,0-.09-.11-.09h-2.1C195.61,95.94,195.57,96,195.57,96Zm6.52,5.55a.7.7,0,0,1-.69.68h-3.16a.08.08,0,0,0-.09.09.51.51,0,0,1-.51.51h-.1a.61.61,0,0,1-.61-.61V99.19a.69.69,0,0,1,.2-.48.65.65,0,0,1,.48-.2h3.79a.62.62,0,0,1,.48.2.66.66,0,0,1,.21.48Zm-1.24-.41V99.61c0-.07,0-.11-.09-.11h-2.5a.1.1,0,0,0-.11.11v1.56a.1.1,0,0,0,.11.1h2.5C200.82,101.27,200.85,101.23,200.85,101.17Zm3.17-8a.7.7,0,0,1,.67.69v8a2.48,2.48,0,0,1-.27,1.48,2.31,2.31,0,0,1-1.43.28c-.19,0-.53,0-1,0a.58.58,0,0,1-.39-.17.55.55,0,0,1-.18-.39.49.49,0,0,1,.14-.37.4.4,0,0,1,.36-.15c.43,0,.72,0,.87,0a1.09,1.09,0,0,0,.58-.09c.06-.06.09-.24.09-.55V97.81c0-.07,0-.11-.1-.11h-2.88a.7.7,0,0,1-.69-.68V93.89a.72.72,0,0,1,.69-.69ZM203.44,95v-.66c0-.07,0-.11-.1-.11h-2.22a.1.1,0,0,0-.11.11V95a.1.1,0,0,0,.11.11h2.22C203.41,95.1,203.44,95.06,203.44,95Zm0,1.72V96c0-.06,0-.09-.1-.09h-2.22c-.08,0-.11,0-.11.09v.68c0,.06,0,.09.11.09h2.22C203.41,96.8,203.44,96.77,203.44,96.71Z"/><path class="cls-3" d="M209.47,103.16c-.66,0-1.26-.45-1.81-1.37a6.19,6.19,0,0,1-.83-3.31,15.17,15.17,0,0,1,.41-3.55.63.63,0,0,1,.28-.41.75.75,0,0,1,.5-.12.48.48,0,0,1,.37.23.5.5,0,0,1,.08.44,15.91,15.91,0,0,0-.38,3.41,5.4,5.4,0,0,0,.49,2.43c.33.66.66,1,1,1s.46-.19.77-.58a7.89,7.89,0,0,0,.95-1.67.56.56,0,0,1,.33-.34.61.61,0,0,1,.46,0,.6.6,0,0,1,.35.33.53.53,0,0,1,0,.46,6.7,6.7,0,0,1-1.42,2.26A2.31,2.31,0,0,1,209.47,103.16Zm5.75-1.89a16.71,16.71,0,0,0-1.29-6.1.58.58,0,0,1,0-.45.48.48,0,0,1,.33-.29.62.62,0,0,1,.48,0,.65.65,0,0,1,.34.33,16.87,16.87,0,0,1,1.4,6.5.57.57,0,0,1-.18.44.61.61,0,0,1-.45.18.6.6,0,0,1-.44-.18A.65.65,0,0,1,215.22,101.27Z"/><path class="cls-3" d="M219.09,97.14a.54.54,0,0,1-.45,0,.63.63,0,0,1-.35-.29.64.64,0,0,1,0-.47.68.68,0,0,1,.29-.36,19.35,19.35,0,0,0,3.67-2.67,1.73,1.73,0,0,1,1.17-.46h.24a1.71,1.71,0,0,1,1.16.46,20.42,20.42,0,0,0,3.7,2.68.67.67,0,0,1,.29.37.6.6,0,0,1-.05.45.61.61,0,0,1-.36.29.55.55,0,0,1-.45,0l-1-.58c-.06,0-.09,0-.09,0v.06a.7.7,0,0,1-.69.68h-5.35a.68.68,0,0,1-.68-.68V96.6a.07.07,0,0,0,0-.06,0,0,0,0,0-.06,0C219.8,96.73,219.48,96.92,219.09,97.14Zm.9,1.46h7a.72.72,0,0,1,.69.68v3.81a.65.65,0,0,1-.65.65h-.12a.55.55,0,0,1-.53-.53s0-.07-.07-.07h-5.66c-.06,0-.09,0-.09.07a.51.51,0,0,1-.15.37.46.46,0,0,1-.36.16H220a.66.66,0,0,1-.46-.19.62.62,0,0,1-.19-.46V99.28a.65.65,0,0,1,.2-.47A.66.66,0,0,1,220,98.6Zm.55-2.36a0,0,0,0,0,0,0h5.88s0,0,0,0a20.77,20.77,0,0,1-2.9-2.4.09.09,0,0,0-.13,0A19.75,19.75,0,0,1,220.54,96.24Zm5.87,5.77V99.75c0-.07,0-.1-.09-.1H220.7c-.07,0-.11,0-.11.1V102a.1.1,0,0,0,.11.1h5.62C226.38,102.11,226.41,102.07,226.41,102Z"/><path class="cls-3" d="M230.52,100c.82-1,1.58-1.88,2.29-2.61a.22.22,0,0,0,.06-.17v-1a.1.1,0,0,0-.11-.11h-1.84a.53.53,0,0,1-.36-.15.49.49,0,0,1-.15-.35.53.53,0,0,1,.51-.52h1.84a.1.1,0,0,0,.11-.11V93.78a.53.53,0,0,1,.17-.41.56.56,0,0,1,.8,0,.57.57,0,0,1,.17.41v2.34a.05.05,0,0,0,0,0s0,0,0,0a8,8,0,0,1,1.83-1.27,3.82,3.82,0,0,1,1.58-.36,2.68,2.68,0,0,1,2.31,1,5.53,5.53,0,0,1,.75,3.24,4.56,4.56,0,0,1-.91,3,3.08,3.08,0,0,1-2.45,1.07,4.35,4.35,0,0,1-1.41-.24.57.57,0,0,1-.31-.3.61.61,0,0,1,0-.46.53.53,0,0,1,.29-.3.64.64,0,0,1,.43,0,3.67,3.67,0,0,0,1,.17,1.85,1.85,0,0,0,1.56-.75,3.53,3.53,0,0,0,.57-2.17,4.65,4.65,0,0,0-.44-2.38,1.58,1.58,0,0,0-1.45-.7,2.94,2.94,0,0,0-1.42.44,10.17,10.17,0,0,0-1.93,1.6.23.23,0,0,0-.07.18v4.9a.55.55,0,0,1-.17.41.56.56,0,0,1-.8,0,.52.52,0,0,1-.17-.41V99.13s0,0,0,0h0c-.48.53-1,1.09-1.45,1.68a.57.57,0,0,1-.39.2.48.48,0,0,1-.39-.14.53.53,0,0,1-.2-.39A.56.56,0,0,1,230.52,100Z"/><path class="cls-3" d="M242.86,96.62a.52.52,0,0,1-.38-.15.57.57,0,0,1-.16-.39.56.56,0,0,1,.56-.54h1.22c.07,0,.11,0,.11-.1V94a.57.57,0,0,1,.17-.42.58.58,0,0,1,.43-.18.62.62,0,0,1,.6.6v1.44c0,.07,0,.1.09.1,1.83,0,3.19-.07,4.1-.1.06,0,.09,0,.09-.11V93.67a.59.59,0,0,1,1.18,0v1.61a.08.08,0,0,0,.09.09l.57,0,.57,0a.52.52,0,0,1,.39.14.55.55,0,0,1,.18.38.51.51,0,0,1-.14.39.55.55,0,0,1-.38.18l-.6,0-.59,0c-.06,0-.09,0-.09.11v1.89a2.13,2.13,0,0,1-.27,1.27,1.2,1.2,0,0,1-1,.35,9.05,9.05,0,0,1-2-.33.49.49,0,0,1-.34-.26.63.63,0,0,1,0-.45.56.56,0,0,1,.26-.34.54.54,0,0,1,.43,0,8,8,0,0,0,1.47.26c.16,0,.25,0,.28-.09a2.2,2.2,0,0,0,0-.6V96.6c0-.07,0-.1-.09-.1-.91,0-2.27.07-4.1.1-.06,0-.09,0-.09.11v3.57a4.56,4.56,0,0,0,.08,1,1,1,0,0,0,.39.54,1.8,1.8,0,0,0,.79.27,11.93,11.93,0,0,0,1.38.06,24.94,24.94,0,0,0,2.82-.16.53.53,0,0,1,.61.48.53.53,0,0,1-.12.42.51.51,0,0,1-.37.2,22.82,22.82,0,0,1-2.94.17,12.25,12.25,0,0,1-1.93-.12,2.6,2.6,0,0,1-1.16-.47,1.63,1.63,0,0,1-.6-.88,5.71,5.71,0,0,1-.15-1.47V96.72a.1.1,0,0,0-.11-.11h-1.24Z"/><path class="cls-3" d="M257.12,100A11.6,11.6,0,0,1,255.7,99a1.2,1.2,0,0,1-.27-.83,1.22,1.22,0,0,1,.29-.86,10.17,10.17,0,0,1,1.47-1.08q1.85-1.19,3.9-2.77a.65.65,0,0,1,.46-.14.62.62,0,0,1,.43.22.58.58,0,0,1-.08.84c-1.4,1.08-2.7,2-3.93,2.8a10.88,10.88,0,0,0-.91.63.47.47,0,0,0-.19.36.51.51,0,0,0,.17.35,8.48,8.48,0,0,0,.82.6,53.88,53.88,0,0,1,4.41,3.34.56.56,0,0,1,.2.41.55.55,0,0,1-.17.43.64.64,0,0,1-.45.19.67.67,0,0,1-.47-.16Q259.27,101.53,257.12,100Z"/><path class="cls-3" d="M266.89,103.31a.54.54,0,0,1-.4-.71,60.11,60.11,0,0,0,1.86-6.84c0-.07,0-.1-.07-.1h-1.09a.51.51,0,0,1-.54-.54.52.52,0,0,1,.15-.38.53.53,0,0,1,.39-.16h1.31a.12.12,0,0,0,.12-.09c0-.18.08-.45.14-.82a.65.65,0,0,1,.25-.41.64.64,0,0,1,.46-.13.58.58,0,0,1,.39.21.48.48,0,0,1,.11.43c0,.16-.07.4-.13.72,0,.06,0,.09.08.09h3.39a.55.55,0,0,1,.54.54.53.53,0,0,1-.16.39.52.52,0,0,1-.38.15h-3.6a.1.1,0,0,0-.12.09,61,61,0,0,1-1.91,7.12.68.68,0,0,1-.79.44Zm3.3-2.16A2.15,2.15,0,0,1,271,99.6a.54.54,0,0,1,.4-.15.63.63,0,0,1,.4.17.41.41,0,0,1,.15.35.53.53,0,0,1-.17.35,1,1,0,0,0-.43.71c0,.32.21.59.63.8a3.93,3.93,0,0,0,1.71.31,12.45,12.45,0,0,0,1.86-.15.47.47,0,0,1,.39.1.52.52,0,0,1,.21.35.6.6,0,0,1-.11.41.57.57,0,0,1-.36.22,13.23,13.23,0,0,1-2,.15,4.92,4.92,0,0,1-2.57-.58A1.71,1.71,0,0,1,270.19,101.15Zm1-3.45a.54.54,0,0,1,.13-.4.55.55,0,0,1,.37-.2,35.75,35.75,0,0,1,3.81-.24.55.55,0,0,1,.55.54.55.55,0,0,1-.54.54,34.5,34.5,0,0,0-3.75.24.45.45,0,0,1-.38-.12A.5.5,0,0,1,271.15,97.7Zm3.12-3.15-.48-.88a.44.44,0,0,1,0-.37A.46.46,0,0,1,274,93a.53.53,0,0,1,.39,0,.51.51,0,0,1,.3.24l.49.89a.52.52,0,0,1,0,.39.41.41,0,0,1-.25.29.48.48,0,0,1-.39,0A.51.51,0,0,1,274.27,94.55Zm2.15-1.5.49.91a.53.53,0,0,1,0,.39.41.41,0,0,1-.25.29.53.53,0,0,1-.39,0,.46.46,0,0,1-.3-.26c-.11-.2-.27-.5-.5-.9a.55.55,0,0,1,0-.38.43.43,0,0,1,.25-.29.53.53,0,0,1,.39,0A.55.55,0,0,1,276.42,93.05Z"/><path class="cls-3" d="M279.25,95.84a.51.51,0,0,1-.54-.54.52.52,0,0,1,.15-.38.53.53,0,0,1,.39-.16c1.31,0,2.91,0,4.8-.08.07,0,.1,0,.08-.11-.05-.35-.08-.62-.09-.82a.56.56,0,0,1,.13-.43.57.57,0,0,1,.42-.21.55.55,0,0,1,.42.15.57.57,0,0,1,.21.41c0,.22,0,.52.1.88,0,.06.05.09.11.09.57,0,1.35,0,2.34-.09a.47.47,0,0,1,.38.13.54.54,0,0,1,.17.38.54.54,0,0,1-.13.39.53.53,0,0,1-.37.18l-2.18.08c-.07,0-.1,0-.08.1a9.1,9.1,0,0,0,1.07,2.62.67.67,0,0,1,.08.5.61.61,0,0,1-.3.38,1.12,1.12,0,0,1-1.13,0,5.09,5.09,0,0,0-2.43-.61,2.75,2.75,0,0,0-1.63.42,1.31,1.31,0,0,0-.59,1.14q0,1.92,3.24,1.92a16.38,16.38,0,0,0,2.31-.2.58.58,0,0,1,.66.44.49.49,0,0,1-.08.42.57.57,0,0,1-.36.22,16.49,16.49,0,0,1-2.53.2,5.55,5.55,0,0,1-3.42-.85,2.68,2.68,0,0,1-1.08-2.21,2.25,2.25,0,0,1,.91-1.88,4.07,4.07,0,0,1,2.51-.7,5.8,5.8,0,0,1,2.36.51h0v0a9.14,9.14,0,0,1-.81-2.21c0-.06-.06-.09-.13-.09C282.28,95.81,280.62,95.84,279.25,95.84Z"/><path class="cls-3" d="M293.47,103.16c-.66,0-1.26-.45-1.81-1.37a6.19,6.19,0,0,1-.83-3.31,15.17,15.17,0,0,1,.41-3.55.63.63,0,0,1,.28-.41.75.75,0,0,1,.5-.12.48.48,0,0,1,.37.23.5.5,0,0,1,.08.44,15.91,15.91,0,0,0-.38,3.41,5.4,5.4,0,0,0,.49,2.43c.33.66.66,1,1,1s.46-.19.77-.58a7.89,7.89,0,0,0,.95-1.67.56.56,0,0,1,.33-.34.61.61,0,0,1,.46,0,.6.6,0,0,1,.35.33.53.53,0,0,1,0,.46,6.7,6.7,0,0,1-1.42,2.26A2.31,2.31,0,0,1,293.47,103.16Zm5.75-1.89a16.71,16.71,0,0,0-1.29-6.1.59.59,0,0,1,0-.45.48.48,0,0,1,.33-.29.62.62,0,0,1,.48,0,.65.65,0,0,1,.34.33,16.69,16.69,0,0,1,1.4,6.5.57.57,0,0,1-.18.44.61.61,0,0,1-.45.18.6.6,0,0,1-.44-.18A.65.65,0,0,1,299.22,101.27Z"/></g></g></svg>